<?xml version="1.0" encoding="utf-8"?>
<svg version="1.1" viewBox="0 340 1024 340" xmlns="http://www.w3.org/2000/svg">
<path d="M0 0 C4.8208943 4.64278245 6.69073255 10.46823992 6.8984375 17.02734375 C6.7198683 29.15219267 1.11539308 37.57254543 -6.8515625 46.15234375 C-7.6971875 46.93609375 -8.5428125 47.71984375 -9.4140625 48.52734375 C-10.22037109 49.30658203 -10.22037109 49.30658203 -11.04296875 50.1015625 C-22.80331243 61.02714275 -41.84036898 72.52734375 -58.4140625 72.52734375 C-58.11096775 81.76262215 -58.11096775 81.76262215 -53.4140625 89.52734375 C-48.12443719 92.98594492 -41.44664051 92.03596025 -35.4140625 91.52734375 C-22.89374056 88.7505924 -11.97314781 80.73618908 -2.4140625 72.52734375 C-1.58003906 71.82738281 -0.74601562 71.12742187 0.11328125 70.40625 C5.61628902 65.64941277 10.22065345 60.56131283 14.67578125 54.8125 C16.5859375 52.52734375 16.5859375 52.52734375 19.5859375 50.52734375 C22.6484375 50.58984375 22.6484375 50.58984375 25.5859375 51.52734375 C27.2734375 53.58984375 27.2734375 53.58984375 27.5859375 56.52734375 C18.20975683 75.97423699 -2.07253026 92.27118678 -20.4140625 102.52734375 C-21.03152344 102.90632812 -21.64898438 103.2853125 -22.28515625 103.67578125 C-33.36364751 110.01315474 -46.27899059 110.59260413 -58.4140625 107.52734375 C-66.73391134 104.44459575 -71.99231843 98.90011241 -75.7265625 90.96484375 C-77.148654 87.51877969 -78.03161108 84.25624508 -78.4140625 80.52734375 C-81.96754082 81.94873508 -82.75905985 83.18600249 -84.4140625 86.52734375 C-86.37136093 88.802423 -88.58705079 90.80296823 -90.7890625 92.83984375 C-91.40958496 93.41508789 -92.03010742 93.99033203 -92.66943359 94.58300781 C-101.2705764 102.34485439 -109.9553501 107.9890276 -121.81640625 107.796875 C-126.84016105 107.27561322 -130.43989419 105.48229875 -134.01953125 101.9375 C-137.71962731 97.03513183 -137.97269873 92.2601741 -137.98046875 86.26171875 C-136.4443184 76.13372056 -131.92239903 66.93913447 -127.5390625 57.77734375 C-123.01661799 48.16217983 -118.85653369 38.58233154 -115.4140625 28.52734375 C-115.04796875 27.48835938 -114.681875 26.449375 -114.3046875 25.37890625 C-113.53408789 22.91163558 -113.05388919 20.71233508 -112.7890625 18.15234375 C-112.6034375 16.35796875 -112.6034375 16.35796875 -112.4140625 14.52734375 C-114.7240625 14.85734375 -117.0340625 15.18734375 -119.4140625 15.52734375 C-119.4140625 16.18734375 -119.4140625 16.84734375 -119.4140625 17.52734375 C-121.01117896 18.91866117 -122.66758934 20.2425171 -124.3515625 21.52734375 C-127.92623174 24.07071146 -127.92623174 24.07071146 -130.4140625 27.52734375 C-131.0740625 27.52734375 -131.7340625 27.52734375 -132.4140625 27.52734375 C-132.66542969 28.10226562 -132.91679688 28.6771875 -133.17578125 29.26953125 C-134.57653386 31.8235849 -136.20246308 33.55689389 -138.2265625 35.65234375 C-153.03722364 51.88482836 -165.51717876 71.54036732 -174.88012695 91.37939453 C-176.75479319 95.34832615 -178.90649772 98.92633353 -181.4140625 102.52734375 C-181.8265625 103.14609375 -182.2390625 103.76484375 -182.6640625 104.40234375 C-185.72829107 106.37220498 -188.97000696 106.22555384 -192.4140625 105.52734375 C-196.24340759 102.92013007 -197.24721922 101.35893958 -198.16015625 96.80859375 C-198.58373736 92.60437176 -197.83842549 89.01669398 -196.5390625 85.02734375 C-196.31782715 84.3094165 -196.0965918 83.59148926 -195.86865234 82.85180664 C-193.5154249 75.43062983 -190.66449614 68.19226287 -187.87158203 60.9284668 C-179.30505147 38.80878494 -179.30505147 38.80878494 -176.4140625 15.52734375 C-181.83125977 15.89761281 -184.61712038 17.95991639 -188.3515625 21.65234375 C-188.87081299 22.14863281 -189.39006348 22.64492188 -189.92504883 23.15625 C-190.95745583 24.14700045 -191.98455724 25.14331391 -193.00585938 26.14550781 C-194.22858905 27.3453431 -195.46831625 28.52780905 -196.7109375 29.70703125 C-200.32500519 33.10199987 -200.32500519 33.10199987 -202.4140625 37.52734375 C-203.13078125 38.07648438 -203.8475 38.625625 -204.5859375 39.19140625 C-208.34601495 42.29710558 -210.86844179 45.93341641 -213.6640625 49.90234375 C-214.23761475 50.71034424 -214.81116699 51.51834473 -215.40209961 52.35083008 C-217.08441077 54.73510602 -218.75212424 57.12883529 -220.4140625 59.52734375 C-220.83768066 60.13400879 -221.26129883 60.74067383 -221.69775391 61.36572266 C-228.27240909 70.86369609 -233.46762586 81.03564618 -238.71484375 91.3046875 C-244.80760009 103.15413611 -244.80760009 103.15413611 -247.8515625 105.02734375 C-250.88350343 105.61894198 -252.51933745 105.64069954 -255.4140625 104.52734375 C-259.21820804 101.35722247 -259.72560488 98.44653218 -260.1640625 93.71484375 C-260.26451599 91.98658714 -260.35346311 90.25745632 -260.4140625 88.52734375 C-261.3215625 89.33171875 -262.2290625 90.13609375 -263.1640625 90.96484375 C-282.26194153 107.26791121 -282.26194153 107.26791121 -295.47265625 106.87109375 C-300.50110471 106.28343975 -304.53509062 104.88838422 -307.75390625 100.84375 C-313.01152328 92.14342288 -312.32695922 82.28736856 -309.9765625 72.71484375 C-305.57726368 57.53570277 -299.32505168 42.79361515 -292.40332031 28.60595703 C-291.21854005 26.116515 -290.09465583 23.60254071 -288.96875 21.0859375 C-288.09649146 19.17051039 -287.22409613 17.25514556 -286.3515625 15.33984375 C-285.95203369 14.42960449 -285.55250488 13.51936523 -285.14086914 12.58154297 C-282.66364925 7.2176787 -280.78036918 4.16329683 -275.4140625 1.52734375 C-272.2890625 1.02734375 -272.2890625 1.02734375 -269.4140625 1.52734375 C-266.81605618 3.4231862 -265.6629676 4.74449705 -264.6875 7.8125 C-263.913044 15.5017417 -269.73580358 24.28159855 -273.0390625 31.15234375 C-288.0935573 59.18710038 -288.0935573 59.18710038 -291.4140625 89.52734375 C-285.98305053 90.38487196 -282.60089802 88.39519161 -278.15234375 85.59375 C-274.4114817 82.77075995 -271.1928449 79.55156613 -267.9934082 76.13549805 C-266.83249526 74.90166826 -265.62663426 73.71044328 -264.4140625 72.52734375 C-263.7540625 72.52734375 -263.0940625 72.52734375 -262.4140625 72.52734375 C-262.14980469 71.93050781 -261.88554688 71.33367187 -261.61328125 70.71875 C-260.36925274 68.44546011 -259.11030209 67.21926483 -257.2265625 65.46484375 C-251.95110973 59.49610766 -250.01362993 52.06612459 -247.48730469 44.65332031 C-245.55085969 39.01313792 -243.54151209 33.39973525 -241.51330566 27.79205322 C-240.8021494 25.81374907 -240.10529149 23.83080667 -239.40917969 21.84716797 C-234.01186212 6.85092267 -234.01186212 6.85092267 -227.4140625 2.58984375 C-222.58025161 0.87786906 -222.58025161 0.87786906 -219.4140625 1.52734375 C-216.5390625 3.40234375 -216.5390625 3.40234375 -214.4140625 6.52734375 C-213.95682623 13.89062916 -216.62950269 20.51412139 -219.4765625 27.15234375 C-219.85361328 28.06113281 -220.23066406 28.96992188 -220.61914062 29.90625 C-221.53899337 32.11855406 -222.47062208 34.32502106 -223.4140625 36.52734375 C-219.37035773 34.38531133 -216.96216999 32.06611172 -214.1640625 28.46484375 C-203.60444503 15.26097281 -191.44477534 0.71401525 -173.6484375 -1.875 C-168.56618681 -2.06520399 -164.64771064 -1.49669064 -160.4140625 1.52734375 C-156.03823532 6.37623333 -155.17560267 11.18260911 -155.4140625 17.52734375 C-156.16643656 22.2619262 -157.2650647 26.87567423 -158.4140625 31.52734375 C-159.09326521 34.52460347 -159.75588741 37.52540249 -160.4140625 40.52734375 C-159.67542969 39.5115625 -158.93679688 38.49578125 -158.17578125 37.44921875 C-147.56122758 22.98605157 -136.3831771 7.79982143 -119.4140625 0.52734375 C-118.7540625 0.52734375 -118.0940625 0.52734375 -117.4140625 0.52734375 C-117.0840625 -0.13265625 -116.7540625 -0.79265625 -116.4140625 -1.47265625 C-102.4610962 -1.97799507 -102.4610962 -1.97799507 -96.6015625 2.83984375 C-93.14009706 7.09250129 -91.95350416 10.54577732 -92.08984375 16.09375 C-92.79888256 21.41581239 -94.70396932 26.45880041 -96.4140625 31.52734375 C-96.84138672 32.91373047 -96.84138672 32.91373047 -97.27734375 34.328125 C-97.92644219 36.41522615 -98.66162232 38.47523416 -99.4140625 40.52734375 C-100.4040625 41.02234375 -100.4040625 41.02234375 -101.4140625 41.52734375 C-102.10599836 43.57061516 -102.78924706 45.61710349 -103.43701172 47.67480469 C-105.64340645 54.11646288 -108.56578002 60.29890566 -111.30102539 66.53076172 C-112.10404572 68.36397734 -112.901685 70.19954706 -113.69921875 72.03515625 C-114.17238525 73.1142627 -114.64555176 74.19336914 -115.13305664 75.30517578 C-118.16514913 82.75631393 -118.16514913 82.75631393 -117.4140625 90.52734375 C-105.28656201 90.00006112 -96.58138286 80.59673461 -88.4140625 72.52734375 C-87.11662109 71.26664063 -87.11662109 71.26664063 -85.79296875 69.98046875 C-81.13063443 65.17267573 -78.42223877 61.02235481 -76.42578125 54.64453125 C-69.66482099 33.8134645 -56.30483893 11.86045743 -36.6640625 1.0078125 C-25.38053096 -4.43022284 -11.02666487 -8.02573709 0 0 Z M-27.4140625 15.52734375 C-28.16300781 16.09066406 -28.91195313 16.65398437 -29.68359375 17.234375 C-41.595213 27.04504723 -54.4887035 44.88967185 -56.4140625 60.52734375 C-39.12444329 55.35221963 -19.72610338 48.44245207 -10.31640625 31.69921875 C-8.02535167 26.18481898 -6.95013086 20.76967999 -8.1640625 14.90234375 C-9.18754915 12.3975976 -9.18754915 12.3975976 -11.4140625 11.52734375 C-17.70181677 10.74617672 -22.32728082 11.63494268 -27.4140625 15.52734375 Z M-224.4140625 36.52734375 C-225.0740625 38.83734375 -225.7340625 41.14734375 -226.4140625 43.52734375 C-224.76850551 42.29925284 -224.76850551 42.29925284 -223.4140625 40.52734375 C-223.64163981 38.36435164 -223.64163981 38.36435164 -224.4140625 36.52734375 Z M-162.4140625 42.52734375 C-161.4140625 44.52734375 -161.4140625 44.52734375 -161.4140625 44.52734375 Z M-227.4140625 44.52734375 C-226.4140625 46.52734375 -226.4140625 46.52734375 -226.4140625 46.52734375 Z M-163.4140625 44.52734375 C-162.4140625 46.52734375 -162.4140625 46.52734375 -162.4140625 46.52734375 Z " fill="#FDB7A3" transform="translate(977.4140625,471.47265625)"/>
<path d="M0 0 C5.53846154 3.07692308 5.53846154 3.07692308 7 6 C6.94886076 12.16227902 5.28315551 17.34174504 3 23 C3 23.66 3 24.32 3 25 C4.22976563 25.24234375 5.45953125 25.4846875 6.7265625 25.734375 C8.35951768 26.0722278 9.99232246 26.41080808 11.625 26.75 C12.43324219 26.90726562 13.24148438 27.06453125 14.07421875 27.2265625 C19.86000917 28.44957511 24.55338765 30.0215154 28.4375 34.75 C30.17594211 41.70376845 26.81790777 48.69847866 24.1875 55 C23.84396484 55.85078125 23.50042969 56.7015625 23.14648438 57.578125 C21.25347727 62.20942194 19.1894381 66.69288236 16.9128418 71.14648438 C15.53313368 73.94796714 14.4190919 76.8316693 13.3125 79.75 C12.89613281 80.83796875 12.47976563 81.9259375 12.05078125 83.046875 C10.59437293 87.13997794 9.87352499 90.39969948 9.9375 94.75 C9.95103516 95.94882812 9.95103516 95.94882812 9.96484375 97.171875 C9.97644531 97.77515625 9.98804688 98.3784375 10 99 C22.03740842 98.77287909 30.76375508 89.95266164 39 82 C39.49177734 81.52868652 39.98355469 81.05737305 40.49023438 80.57177734 C45.68341834 75.57569979 50.65128751 70.67721337 54.875 64.8125 C57.03205968 61.92592379 57.75112045 61.10247982 61.1875 59.6875 C64 60 64 60 66.5 61.4375 C68 64 68 64 67.41015625 67.73046875 C66.15409084 72.237256 63.91968792 75.33466758 60.9375 78.875 C60.44507813 79.47723389 59.95265625 80.07946777 59.4453125 80.69995117 C57.97889175 82.48016512 56.49249366 84.24162875 55 86 C54.22785156 86.92683594 53.45570313 87.85367188 52.66015625 88.80859375 C47.34725592 94.96694657 41.4636338 100.07923924 35 105 C33.69289063 105.99580078 33.69289063 105.99580078 32.359375 107.01171875 C22.9755091 113.87690898 15.75953814 116.07305786 4 115 C-1.487038 113.86566041 -5.81599181 111.68236499 -9 107 C-13.57027481 93.14824198 -7.9464219 80.34917224 -2.171875 67.828125 C-0.80859872 65.04830224 -0.80859872 65.04830224 -1 62 C-0.34 62 0.32 62 1 62 C1.19335938 61.41992188 1.38671875 60.83984375 1.5859375 60.2421875 C1.84632813 59.46101562 2.10671875 58.67984375 2.375 57.875 C2.64699219 57.05386719 2.91898438 56.23273437 3.19921875 55.38671875 C3.83922342 53.47919264 4.50851799 51.58150245 5.1875 49.6875 C6.19292633 46.82979816 6.19292633 46.82979816 6 43 C4.56445975 42.49440092 3.1264798 41.9957251 1.6875 41.5 C0.88699219 41.2215625 0.08648437 40.943125 -0.73828125 40.65625 C-3.08769422 39.86066893 -3.08769422 39.86066893 -6 40 C-7.63208861 42.09518425 -7.63208861 42.09518425 -9.109375 44.86328125 C-9.69976562 45.89646484 -10.29015625 46.92964844 -10.8984375 47.99414062 C-11.81496094 49.63672852 -11.81496094 49.63672852 -12.75 51.3125 C-22.87406357 69.20491971 -33.61468544 87.16689355 -48 102 C-48.58007812 102.64195312 -49.16015625 103.28390625 -49.7578125 103.9453125 C-56.64822575 111.34850069 -65.53090537 116.81864178 -75.75 117.4375 C-82.29031343 117.27966438 -87.72517275 114.87526699 -92.6328125 110.56640625 C-96.97327855 105.35524791 -97.79897772 98.49333185 -99 92 C-100.1446875 93.4540625 -100.1446875 93.4540625 -101.3125 94.9375 C-108.86889931 103.70008511 -120.84828245 114.24560166 -132.890625 115.23828125 C-139.88622015 115.3928351 -144.43741256 115.40371506 -150 111 C-155.53269972 105.58596408 -157.13816087 100.22977047 -158.125 92.6875 C-158.29257812 91.43324219 -158.46015625 90.17898438 -158.6328125 88.88671875 C-158.75398438 87.93410156 -158.87515625 86.98148438 -159 86 C-160.11568359 87.12341797 -160.11568359 87.12341797 -161.25390625 88.26953125 C-176.037698 102.9692047 -193.12304952 116.42394364 -214.875 116.375 C-221.98176967 116.35394613 -227.74489125 115.63780797 -234 112 C-234.96099609 111.49146484 -234.96099609 111.49146484 -235.94140625 110.97265625 C-242.02703932 107.27921588 -245.62740989 101.17687709 -247.81640625 94.515625 C-250.10572594 84.46182945 -248.99247044 74.15509928 -248 64 C-247.34 64 -246.68 64 -246 64 C-245.835 62.845 -245.67 61.69 -245.5 60.5 C-241.42862053 42.32215082 -227.11450335 22.52311648 -212 12 C-201.36514865 5.46716274 -191.23866525 1.13225012 -178.64453125 3.4296875 C-172.76266343 5.02577224 -169.21942214 7.82781361 -166 13 C-162.6666843 19.66663141 -162.80855481 28.64569772 -164.7578125 35.76953125 C-165.70651434 37.96200361 -166.75461451 39.96327581 -168 42 C-168.5775 42.99 -169.155 43.98 -169.75 45 C-183.65481768 63.53975691 -202.9681332 74.02218619 -225 80 C-226.32 80 -227.64 80 -229 80 C-228.74273307 81.89772191 -228.46856661 83.79315677 -228.1875 85.6875 C-228.03667969 86.74324219 -227.88585937 87.79898438 -227.73046875 88.88671875 C-226.95141943 92.20705195 -226.0950275 94.3117737 -224 97 C-217.34417065 100.74319292 -208.65005576 99.83084142 -201.46484375 98.1953125 C-186.457315 93.28867965 -174.40586773 83.60868342 -163 73 C-162.13117188 72.19949219 -161.26234375 71.39898438 -160.3671875 70.57421875 C-155.09511112 65.25746375 -152.30638858 59.78348929 -149.51513672 52.96069336 C-141.70870694 33.88555847 -126.84604757 15.89972077 -108.34375 6.67578125 C-100.3879214 3.34135309 -91.71272131 2.44274215 -83.3203125 4.73046875 C-78.54528248 6.69996767 -74.69025897 9.40436305 -71 13 C-71 13.66 -71 14.32 -71 15 C-70.13375 14.505 -69.2675 14.01 -68.375 13.5 C-64.81315532 11.91695792 -62.83760291 11.4994431 -59 12 C-56.6875 13.125 -56.6875 13.125 -55 15 C-52.34607403 25.60070996 -58.87925653 36.10003832 -63.42358398 45.40234375 C-66.39919164 51.55751 -69.00700838 57.7981332 -71.4375 64.1875 C-71.76717773 65.04794922 -72.09685547 65.90839844 -72.43652344 66.79492188 C-75.41195063 74.74804911 -77.33064035 81.95801615 -77.125 90.5 C-77.11597656 91.22703125 -77.10695313 91.9540625 -77.09765625 92.703125 C-77.07442241 94.4688972 -77.03856683 96.23449614 -77 98 C-72.49773067 98.96313402 -69.5116643 99.33131078 -65 98 C-46.87526419 85.09299116 -35.13597577 63.03451571 -24.625 44 C-24.04709717 42.96713867 -23.46919434 41.93427734 -22.8737793 40.87011719 C-22.35082275 39.90235352 -21.82786621 38.93458984 -21.2890625 37.9375 C-20.82193848 37.08027344 -20.35481445 36.22304688 -19.87353516 35.33984375 C-18.86845861 32.64765436 -18.92597788 31.62735989 -20 29 C-20.99 27.515 -20.99 27.515 -22 26 C-23.48783841 20.16309547 -22.87340245 16.15839484 -20 11 C-14.83065087 3.73426495 -9.42820757 -1.17852595 0 0 Z M-209 34 C-216.38049712 43.51024513 -224.03701525 54.95741938 -226 67 C-208.58535381 63.62942332 -190.90622065 54.76399536 -180.5390625 39.90625 C-177.9603438 35.29747616 -176.70764326 30.29266508 -177 25 C-178.14151887 22.50941337 -179.0896056 20.9103944 -181 19 C-193.59435204 17.31891581 -201.36315731 24.8854029 -209 34 Z M-110.66015625 29.6328125 C-111.43230469 30.41398437 -112.20445312 31.19515625 -113 32 C-113.61746094 32.59554687 -114.23492187 33.19109375 -114.87109375 33.8046875 C-128.55000175 48.0206427 -137.45984566 70.71787375 -139.08203125 90.01953125 C-138.98951046 93.3811201 -138.46719177 96.53280823 -136 99 C-127.45556297 100.0874738 -122.40042598 96.30031949 -115.75 91.3125 C-97.70151138 76.358038 -85.68007499 53.10556218 -79 31 C-79.0858229 27.39543821 -79.64332082 26.34677142 -82.25 23.8125 C-93.1388952 16.63572817 -102.10594957 21.38175953 -110.66015625 29.6328125 Z " fill="#FDB7A2" transform="translate(477,464)"/>
<path d="M0 0 C11.00972881 10.05676885 20.16256894 22.59542657 21.26342773 37.91870117 C22.55005163 68.08070114 11.75606791 95.25447197 -8.53222656 117.47363281 C-8.97663086 117.95670898 -9.42103516 118.43978516 -9.87890625 118.9375 C-10.68070313 119.82179688 -11.4825 120.70609375 -12.30859375 121.6171875 C-25.27023961 135.25878855 -41.3864522 144.24326204 -59.06640625 150.3125 C-60.09749512 150.67069824 -60.09749512 150.67069824 -61.14941406 151.03613281 C-71.93042712 154.5254443 -83.18501124 155.28755932 -94.44140625 155.6875 C-95.56998047 155.74292969 -96.69855469 155.79835938 -97.86132812 155.85546875 C-108.48051068 156.25849695 -119.59985049 155.6704198 -128.87890625 149.9375 C-133.05711641 145.65215624 -135.17410682 141.68081727 -135.31640625 135.6875 C-134.93034614 121.48944023 -127.81611042 107.09006231 -122.81640625 93.9375 C-122.15025714 92.17489671 -121.48457463 90.41211702 -120.81933594 88.64916992 C-119.47833588 85.09659486 -118.13524997 81.54481991 -116.79052734 77.99365234 C-114.29686316 71.40404529 -111.82873136 64.80494106 -109.36065674 58.20571899 C-105.24676369 47.21068871 -101.10473824 36.22639971 -96.94140625 25.25 C-96.28640137 23.52293823 -96.28640137 23.52293823 -95.61816406 21.76098633 C-92.72590355 14.14510915 -89.80900895 6.53889413 -86.87890625 -1.0625 C-107.0867299 3.0715366 -125.9451056 11.19782022 -138.87890625 27.9375 C-139.58166869 29.0740365 -140.27178071 30.21862985 -140.94140625 31.375 C-143.49990734 34.75882403 -145.80160199 35.15340303 -149.87890625 35.9375 C-152.6666012 33.8977232 -154.65656607 32.29597406 -155.234375 28.765625 C-154.81915996 19.10803063 -149.10858388 11.757223 -142.31640625 5.3125 C-105.28429157 -25.91065551 -38.50860773 -31.65478214 0 0 Z M-63.87890625 -3.0625 C-66.68979213 2.36496912 -69.07466402 7.77104049 -71.171875 13.5078125 C-71.47505142 14.32560181 -71.77822784 15.14339111 -72.09059143 15.98596191 C-73.08686926 18.67655946 -74.07667274 21.36948901 -75.06640625 24.0625 C-75.77140731 25.97068915 -76.47681908 27.87872661 -77.18261719 29.78662109 C-78.66439756 33.79434763 -80.14350561 37.8030461 -81.62060547 41.8125 C-83.83639126 47.82552876 -86.06175087 53.83498273 -88.2890625 59.84375 C-91.49970433 68.50662306 -94.69931324 77.17350181 -97.89143372 85.84321594 C-99.81224881 91.05660888 -101.74489125 96.26534968 -103.690979 101.46936035 C-104.83068385 104.52132426 -105.96244968 107.57619059 -107.09240723 110.6317749 C-107.60757343 112.01923751 -108.12624443 113.405405 -108.64880371 114.7901001 C-112.58567288 125.0888984 -112.58567288 125.0888984 -113.87890625 135.9375 C-112.13013252 138.13948417 -111.2921995 138.84154468 -108.5234375 139.484375 C-84.05136587 141.23961324 -60.11902321 136.24573083 -39.87890625 121.9375 C-38.78642578 121.19693359 -38.78642578 121.19693359 -37.671875 120.44140625 C-33.3919561 117.42173116 -30.00282587 114.07664943 -26.65625 110.0546875 C-25.45959172 108.62921764 -24.22081263 107.23819244 -22.9453125 105.8828125 C-7.39836634 89.33577039 1.61654005 66.65842207 1.3359375 43.8984375 C0.67379095 34.77285413 -2.44707044 26.85524619 -6.87890625 18.9375 C-7.53890625 18.9375 -8.19890625 18.9375 -8.87890625 18.9375 C-9.141875 18.34582031 -9.40484375 17.75414062 -9.67578125 17.14453125 C-14.15972888 8.91910783 -24.32230277 3.91337899 -32.87890625 0.9375 C-43.13316932 -1.87514314 -53.25680858 -3.32215487 -63.87890625 -3.0625 Z " fill="#FDB7A3" transform="translate(200.87890625,429.0625)"/>
<path d="M0 0 C1.44158478 0.00232635 1.44158478 0.00232635 2.91229248 0.00469971 C15.71548788 0.02884917 28.51393699 0.1474353 41.3125 0.5 C42.58327393 0.53077637 43.85404785 0.56155273 45.16333008 0.59326172 C59.6876535 1.06875747 59.6876535 1.06875747 65.1875 3.125 C67.1875 6.125 67.1875 6.125 67.125 9.5625 C65.98168154 13.90711016 64.96685634 14.79690383 61.1875 17.125 C58.51031847 17.43708586 56.2847658 17.52771731 53.62890625 17.40625 C52.89168839 17.38912964 52.15447052 17.37200928 51.39491272 17.35437012 C49.81196248 17.31540672 48.22921542 17.26731115 46.64678955 17.2109375 C44.17848902 17.12468512 41.71097277 17.06613356 39.24169922 17.015625 C34.20205096 16.90917731 29.16369158 16.7690593 24.125 16.625 C22.37175066 16.57660986 20.61849545 16.52843179 18.86523438 16.48046875 C14.63925164 16.36441109 10.4133575 16.24552814 6.1875 16.125 C5.98769531 17.26195312 5.78789063 18.39890625 5.58203125 19.5703125 C3.85546027 27.30450753 0.72556326 34.62659595 -2.125 42 C-3.39455269 45.31149698 -4.65989407 48.6246004 -5.92578125 51.9375 C-6.24829865 52.77965057 -6.57081604 53.62180115 -6.90310669 54.48947144 C-10.54611333 64.01333978 -14.08067832 73.57717034 -17.60244751 83.14642334 C-20.2951431 90.46122212 -23.03472376 97.7460924 -25.95703125 104.97265625 C-28.32089471 110.82138912 -30.48077073 116.71157377 -32.5 122.6875 C-33.9311992 126.83552176 -35.37114049 130.98049874 -36.8125 135.125 C-37.0305127 135.75255188 -37.24852539 136.38010376 -37.47314453 137.02667236 C-38.89122352 141.10189566 -40.32695307 145.17033546 -41.78164673 149.2326355 C-42.25668134 150.56668381 -42.72664225 151.90255079 -43.19125366 153.24026489 C-43.84707669 155.12586332 -44.52283465 157.00449149 -45.19921875 158.8828125 C-45.58295654 159.9670752 -45.96669434 161.05133789 -46.36206055 162.16845703 C-48.02090982 165.54981787 -50.03535235 167.61039129 -52.8125 170.125 C-53.1425 170.455 -53.4725 170.785 -53.8125 171.125 C-57.75976878 171.58398474 -59.59526033 171.24386699 -63.125 169.3125 C-65.8125 167.125 -65.8125 167.125 -66.8125 164.125 C-67.27278013 157.54443256 -65.98176704 152.49471986 -63.8125 146.3125 C-63.47001221 145.31114014 -63.12752441 144.30978027 -62.7746582 143.27807617 C-54.36971151 119.0456095 -45.11631082 95.08979854 -35.98754883 71.12304688 C-33.25028617 63.93367213 -30.53741888 56.73560084 -27.83984375 49.53125 C-27.49644455 48.61425827 -27.15304535 47.69726654 -26.79924011 46.75248718 C-25.08899413 42.18433707 -23.38041983 37.61556787 -21.67358398 33.04614258 C-21.05064261 31.38101311 -20.42767823 29.71589225 -19.8046875 28.05078125 C-19.51669785 27.27831055 -19.22870819 26.50583984 -18.93199158 25.70996094 C-16.92567321 20.35134642 -16.92567321 20.35134642 -15.8125 18.125 C-36.29310388 17.13222387 -59.29279534 21.03354178 -75.6484375 34.1484375 C-79.77046219 37.91331926 -82.96904884 41.65576249 -85.75 46.5 C-87.8125 49.125 -87.8125 49.125 -91.25 50.3125 C-94.8125 50.125 -94.8125 50.125 -97.8125 48.25 C-100.19290115 44.53062321 -100.34344171 42.83430651 -99.57421875 38.5859375 C-95.62458647 25.82558706 -85.09184474 18.03712731 -73.73828125 12.01171875 C-50.78364998 0.56062699 -25.10998746 -0.07147718 0 0 Z " fill="#FDB8A4" transform="translate(657.8125,410.875)"/>
<path d="M0 0 C2.23572135 2.89328645 3.125 4.12126306 3.125 7.75 C1.58566372 12.06014157 -0.42137741 15.89430736 -2.875 19.75 C-3.535 19.42 -4.195 19.09 -4.875 18.75 C-5.9475 18.95625 -7.02 19.1625 -8.125 19.375 C-12.53491377 19.81599138 -14.24553169 19.22463748 -17.875 16.75 C-20.01730459 14.10782434 -20.78114322 12.2779444 -21.375 8.9375 C-20.67079874 4.44821694 -18.92547766 1.12158057 -15.875 -2.25 C-10.33570706 -4.29713 -4.64840025 -3.63787846 0 0 Z " fill="#FCB6A1" transform="translate(727.875,444.25)"/>
<path d="M0 0 C-2.07648846 6.38720766 -4.33291205 12.68907765 -6.703125 18.97265625 C-7.23500679 20.38890793 -7.23500679 20.38890793 -7.77763367 21.83377075 C-8.9335418 24.91059796 -10.0917561 27.9865514 -11.25 31.0625 C-12.05949097 33.21583975 -12.86881508 35.36924223 -13.67797852 37.52270508 C-15.32453121 41.90438415 -16.97184441 46.28577622 -18.61962891 50.66699219 C-20.79631618 56.45606576 -22.9678357 62.24706114 -25.13671875 68.0390625 C-32.37865292 87.37692823 -39.65381987 106.70146163 -47 126 C-48.14936872 122.55189383 -47.85873466 121.90909394 -46.63574219 118.62158203 C-46.31036972 117.73327194 -45.98499725 116.84496185 -45.64976501 115.92973328 C-45.28581131 114.96549942 -44.9218576 114.00126556 -44.546875 113.0078125 C-44.17587173 112.00333572 -43.80486847 110.99885895 -43.42262268 109.96394348 C-42.20736532 106.68089477 -40.97889222 103.40296671 -39.75 100.125 C-38.90839684 97.86036798 -38.06749729 95.59547437 -37.22729492 93.33032227 C-34.83170811 86.88179103 -32.41970156 80.4395172 -30 74 C-29.70361633 73.21111389 -29.40723267 72.42222778 -29.10186768 71.60943604 C-26.6892979 65.19347536 -24.25549037 58.78576105 -21.80859375 52.3828125 C-19.52798134 46.40691252 -17.27779512 40.41993489 -15.03515625 34.4296875 C-14.69126358 33.51121536 -14.34737091 32.59274323 -13.99305725 31.6464386 C-12.61266408 27.95850442 -11.23279722 24.27037584 -9.85488892 20.58151245 C-8.90153344 18.02927266 -7.94693261 15.47750146 -6.9921875 12.92578125 C-6.70420792 12.15334076 -6.41622833 11.38090027 -6.11952209 10.58505249 C-4.11319562 5.22639123 -4.11319562 5.22639123 -3 3 C-9.93 2.505 -9.93 2.505 -17 2 C-17 1.67 -17 1.34 -17 1 C-11.29014022 0.25983299 -5.75813575 -0.10469338 0 0 Z " fill="#F89A7C" transform="translate(645,426)"/>
<path d="M0 0 C1.56317984 4.5324327 0.25286727 7.66692495 -1.42675781 12.00439453 C-4.36033447 17.59020855 -8.83498867 21.63692763 -13.375 25.9375 C-14.30828125 26.85595703 -15.2415625 27.77441406 -16.203125 28.72070312 C-27.92123511 40.11515439 -27.92123511 40.11515439 -35 41 C-36.010625 41.2475 -37.02125 41.495 -38.0625 41.75 C-41 42 -41 42 -43.375 41.0625 C-45.34270336 38.56503035 -45.54776297 36.74823597 -45.40625 33.60546875 C-44.52248479 27.93747454 -42.71817016 22.46132659 -41 17 C-39.31810785 21.62520341 -41.0601467 25.39239103 -42.40625 29.9296875 C-43.05461167 33.28239984 -42.75048135 35.69195723 -42 39 C-36.56898803 39.85752821 -33.18683552 37.86784786 -28.73828125 35.06640625 C-24.9974192 32.2434162 -21.7787824 29.02422238 -18.5793457 25.6081543 C-17.41843276 24.37432451 -16.21257176 23.18309953 -15 22 C-14.34 22 -13.68 22 -13 22 C-12.60941406 21.12214844 -12.60941406 21.12214844 -12.2109375 20.2265625 C-10.92677579 17.86536194 -9.49592379 16.29494363 -7.625 14.375 C-3.71580111 10.0495816 -1.81078167 5.48858047 0 0 Z " fill="#F8A78E" transform="translate(728,522)"/>
<path d="M0 0 C1.69382812 0.11794922 1.69382812 0.11794922 3.421875 0.23828125 C6.25 0.6875 6.25 0.6875 8.25 2.6875 C6.38408203 2.61789062 6.38408203 2.61789062 4.48046875 2.546875 C-5.17102028 2.29761034 -12.83197929 2.61302815 -21.75 6.6875 C-23.07510114 7.05218596 -24.40672399 7.39681385 -25.75 7.6875 C-25.75 8.6775 -25.75 9.6675 -25.75 10.6875 C-27.11328125 12.125 -27.11328125 12.125 -29.0625 13.6875 C-33.77921532 17.61389225 -37.97668387 21.92227972 -42.234375 26.33203125 C-44.40050365 28.3602542 -46.03131267 29.58859134 -48.75 30.6875 C-47.23619845 25.70417811 -44.2988904 22.53191779 -40.8125 18.8125 C-40.23201904 18.19262207 -39.65153809 17.57274414 -39.0534668 16.93408203 C-28.65539001 6.13984746 -15.26284723 -1.178123 0 0 Z " fill="#F6A48B" transform="translate(964.75,467.3125)"/>
<path d="M0 0 C1.1640804 3.49224119 0.81940969 4.19408202 -0.42773438 7.53710938 C-0.7655896 8.45657349 -1.10344482 9.3760376 -1.45153809 10.32336426 C-1.82846802 11.32009155 -2.20539795 12.31681885 -2.59375 13.34375 C-2.97809204 14.38204956 -3.36243408 15.42034912 -3.75842285 16.4901123 C-4.99697801 19.83002651 -6.2482376 23.16501611 -7.5 26.5 C-8.31335121 28.68588138 -9.1258605 30.87207622 -9.9375 33.05859375 C-11.52752698 37.3396336 -13.12472558 41.61789774 -14.7265625 45.89453125 C-16.20239728 49.84235811 -17.65628606 53.79693755 -19.0859375 57.76171875 C-19.56577087 59.08713684 -19.56577087 59.08713684 -20.05529785 60.43933105 C-20.64778816 62.0799821 -21.23587038 63.72223434 -21.81872559 65.36633301 C-23.77779009 70.77779009 -23.77779009 70.77779009 -26 73 C-25.38664919 68.48070804 -24.2196614 64.53281853 -22.6015625 60.2734375 C-22.11716101 58.98047868 -21.63278691 57.68750959 -21.1484375 56.39453125 C-20.391221 54.39331622 -19.6318269 52.39294715 -18.87109375 50.39306641 C-16.02629242 42.89195086 -13.49668607 35.48158808 -11.67089844 27.65283203 C-10.71421088 23.86994737 -9.33470968 20.33564947 -7.8125 16.75 C-7.53986328 16.08871094 -7.26722656 15.42742187 -6.98632812 14.74609375 C-6.33161094 13.16098899 -5.66696341 11.57999099 -5 10 C-4.34 10 -3.68 10 -3 10 C-2.01 6.7 -1.02 3.4 0 0 Z " fill="#F7A187" transform="translate(114,482)"/>
<path d="M0 0 C3.6754537 0.50851286 6.89475386 1.6498316 10.3125 3.0625 C11.19550781 3.42472656 12.07851563 3.78695313 12.98828125 4.16015625 C13.98408203 4.57587891 13.98408203 4.57587891 15 5 C14.4459143 10.43462415 13.06911556 14.84165658 10.91015625 19.83984375 C10.45327675 20.92852501 10.45327675 20.92852501 9.98716736 22.03919983 C9.01999963 24.34198383 8.04228707 26.64005992 7.0625 28.9375 C6.0871445 31.2317005 5.11438704 33.52686585 4.14854431 35.8250885 C3.54992192 37.24893159 2.94591979 38.67053007 2.33546448 40.08934021 C-0.53895922 46.91445656 -2.1606352 53.57016326 -2.625 61 C-2.69976562 62.134375 -2.77453125 63.26875 -2.8515625 64.4375 C-2.90054687 65.283125 -2.94953125 66.12875 -3 67 C-3.33 67 -3.66 67 -4 67 C-6.76338871 54.23434565 -1.4326007 42.23504509 3.828125 30.828125 C5.19140128 28.04830224 5.19140128 28.04830224 5 25 C5.66 25 6.32 25 7 25 C7.19335938 24.41992188 7.38671875 23.83984375 7.5859375 23.2421875 C7.84632813 22.46101562 8.10671875 21.67984375 8.375 20.875 C8.64699219 20.05386719 8.91898437 19.23273437 9.19921875 18.38671875 C9.83922342 16.47919264 10.50851799 14.58150245 11.1875 12.6875 C12.19292633 9.82979816 12.19292633 9.82979816 12 6 C10.56445975 5.49440092 9.1264798 4.9957251 7.6875 4.5 C6.88699219 4.2215625 6.08648437 3.943125 5.26171875 3.65625 C2.91230578 2.86066893 2.91230578 2.86066893 0 3 C-1.68798827 4.43750191 -1.68798827 4.43750191 -3 6 C-1.125 1.125 -1.125 1.125 0 0 Z " fill="#F79577" transform="translate(471,501)"/>
<path d="M0 0 C0.66 0.33 1.32 0.66 2 1 C-5.96095809 7.84565478 -13.77463987 12.81710228 -24.59375 12.40625 C-28.5756058 11.73398863 -31.5409262 10.04982151 -35 8 C-35 7.01 -35 6.02 -35 5 C-34.154375 5.639375 -33.30875 6.27875 -32.4375 6.9375 C-27.5401828 10.14529984 -22.81356503 10.29252454 -17.125 9.5 C-12.04622284 8.39119827 -8.78115343 5.93781271 -4.91015625 2.55859375 C-3 1 -3 1 0 0 Z " fill="#F3967C" transform="translate(880,567)"/>
<path d="M0 0 C-12.49826598 7.46350351 -26.0301583 13.74950837 -41 10 C-41.66 9.34 -42.32 8.68 -43 8 C-41.27716797 8.05220703 -41.27716797 8.05220703 -39.51953125 8.10546875 C-29.831398 8.30621574 -21.35440643 7.77657293 -12 5 C-12 4.34 -12 3.68 -12 3 C-10.3789897 2.30314502 -8.75303934 1.61777139 -7.125 0.9375 C-6.22007812 0.55464844 -5.31515625 0.17179688 -4.3828125 -0.22265625 C-2 -1 -2 -1 0 0 Z " fill="#F18F74" transform="translate(964,570)"/>
<path d="M0 0 C1.39195915 4.17587745 -0.17676781 6.13474776 -2 10 C-0.02 9.01 1.96 8.02 4 7 C2.55797524 11.15151338 0.4989562 14.29978445 -2.125 17.8125 C-2.84945312 18.78832031 -3.57390625 19.76414062 -4.3203125 20.76953125 C-4.87460937 21.50558594 -5.42890625 22.24164062 -6 23 C-6.66 22.67 -7.32 22.34 -8 22 C-7.29807915 17.06678166 -5.36469225 12.74025318 -3.4375 8.1875 C-3.10814453 7.39923828 -2.77878906 6.61097656 -2.43945312 5.79882812 C-1.63041094 3.86416204 -0.81576148 1.93184247 0 0 Z M-3 10 C-3.66 12.31 -4.32 14.62 -5 17 C-3.35444301 15.77190909 -3.35444301 15.77190909 -2 14 C-2.22757731 11.83700789 -2.22757731 11.83700789 -3 10 Z M-6 18 C-5 20 -5 20 -5 20 Z " fill="#F99E82" transform="translate(756,498)"/>
<path d="M0 0 C-0.08378906 1.18078125 -0.16757812 2.3615625 -0.25390625 3.578125 C-0.35709884 5.13539497 -0.4599453 6.6926879 -0.5625 8.25 C-0.64661133 9.41595703 -0.64661133 9.41595703 -0.73242188 10.60546875 C-0.78076172 11.35957031 -0.82910156 12.11367188 -0.87890625 12.890625 C-0.9260376 13.58188477 -0.97316895 14.27314453 -1.02172852 14.98535156 C-0.99853136 17.13617072 -0.5995764 18.94084871 0 21 C-2.31459868 19.18182999 -2.95377187 18.24384457 -3.51171875 15.30078125 C-3.56972656 14.31464844 -3.62773438 13.32851563 -3.6875 12.3125 C-3.75324219 11.31863281 -3.81898438 10.32476563 -3.88671875 9.30078125 C-3.92410156 8.54152344 -3.96148438 7.78226563 -4 7 C-4.45890625 7.40992188 -4.9178125 7.81984375 -5.390625 8.2421875 C-6.00421875 8.78101563 -6.6178125 9.31984375 -7.25 9.875 C-8.15492188 10.67550781 -8.15492188 10.67550781 -9.078125 11.4921875 C-10.97418746 12.9797487 -12.81290005 14.00322436 -15 15 C-13.60014836 13.36114929 -12.19920688 11.72321773 -10.79296875 10.08984375 C-9.55864988 8.65114965 -8.33253049 7.20539344 -7.11328125 5.75390625 C-6.49839844 5.03074219 -5.88351562 4.30757812 -5.25 3.5625 C-4.39148438 2.54349609 -4.39148438 2.54349609 -3.515625 1.50390625 C-2 0 -2 0 0 0 Z " fill="#F39376" transform="translate(721,553)"/>
<path d="M0 0 C0.66 0 1.32 0 2 0 C2.07476563 0.75023437 2.14953125 1.50046875 2.2265625 2.2734375 C3.3722407 11.19175603 5.98133651 18.0818031 12.5 24.4375 C15.25493194 26.15933246 18.05492485 27.63019761 21 29 C18 30 18 30 16.16796875 29.28515625 C7.08324515 23.67663852 2.54910416 15.90791321 -0.25 5.6875 C-1 2 -1 2 0 0 Z " fill="#F29377" transform="translate(899,548)"/>
<path d="M0 0 C1.66117906 4.61438629 0.00239036 7.97152155 -1.69140625 12.3671875 C-4.12927911 17.27204215 -7.98077392 19.87648127 -13 22 C-11.61783744 18.89355544 -9.98914235 16.80108494 -7.625 14.375 C-3.71580111 10.0495816 -1.81078167 5.48858047 0 0 Z " fill="#F8A288" transform="translate(728,522)"/>
<path d="M0 0 C1.14680101 3.44040303 0.87124738 4.00270384 -0.43359375 7.23046875 C-0.75263672 8.03291016 -1.07167969 8.83535156 -1.40039062 9.66210938 C-1.74263672 10.49548828 -2.08488281 11.32886719 -2.4375 12.1875 C-2.77587891 13.03248047 -3.11425781 13.87746094 -3.46289062 14.74804688 C-4.30025552 16.83556216 -5.14620197 18.91916409 -6 21 C-7.79312024 14.65615793 -5.64728044 9.75495747 -3 4 C-2.34 4 -1.68 4 -1 4 C-0.67 2.68 -0.34 1.36 0 0 Z " fill="#FAAA91" transform="translate(658,441)"/>
<path d="M0 0 C0.66 0 1.32 0 2 0 C2.03738281 1.05058594 2.07476562 2.10117187 2.11328125 3.18359375 C2.45493759 10.96113653 3.00662248 17.71177647 6 25 C0.98599757 20.66972518 0.53400084 14.96944912 -0.1875 8.75 C-0.32961914 7.65171875 -0.32961914 7.65171875 -0.47460938 6.53125 C-0.69762146 4.69267711 -0.85456989 2.84633007 -1 1 C-0.67 0.67 -0.34 0.34 0 0 Z " fill="#F79B80" transform="translate(319,547)"/>
<path d="M0 0 C0.66 0 1.32 0 2 0 C2.13277344 1.02480469 2.26554687 2.04960938 2.40234375 3.10546875 C2.58064088 4.4661574 2.75903123 5.82683385 2.9375 7.1875 C3.02451172 7.86103516 3.11152344 8.53457031 3.20117188 9.22851562 C3.67825477 12.85081166 4.23012035 16.42803585 5 20 C1.75606846 17.68550952 1.31697382 14.88021227 0.62109375 11.09765625 C0.49863281 10.36417969 0.37617188 9.63070312 0.25 8.875 C0.11207031 8.13378906 -0.02585937 7.39257812 -0.16796875 6.62890625 C-0.49914351 4.76135375 -0.75594309 2.88092139 -1 1 C-0.67 0.67 -0.34 0.34 0 0 Z " fill="#F39679" transform="translate(379,552)"/>
<path d="M0 0 C0.66 0.66 1.32 1.32 2 2 C-0.97 4.97 -3.94 7.94 -7 11 C-7.33 9.68 -7.66 8.36 -8 7 C-5.36 4.69 -2.72 2.38 0 0 Z " fill="#FBB39C" transform="translate(768,496)"/>
<path d="M0 0 C0.66 0.33 1.32 0.66 2 1 C1.113125 1.53625 0.22625 2.0725 -0.6875 2.625 C-4.18288216 4.93311458 -6.44874658 7.69837793 -9 11 C-9.99 10.34 -10.98 9.68 -12 9 C-10.37680325 7.68527053 -8.751385 6.37328338 -7.125 5.0625 C-6.22007813 4.33160156 -5.31515625 3.60070312 -4.3828125 2.84765625 C-2 1 -2 1 0 0 Z " fill="#F6A68C" transform="translate(73,424)"/>
<path d="M0 0 C0 3.88291746 -1.37860494 5.46752535 -3.5 8.6875 C-4.1496875 9.68136719 -4.799375 10.67523437 -5.46875 11.69921875 C-6.22671875 12.83810547 -6.22671875 12.83810547 -7 14 C-7.33 13.34 -7.66 12.68 -8 12 C-6.22520545 6.77421606 -4.18811925 3.7353496 0 0 Z " fill="#FAAA90" transform="translate(264,502)"/>
<path d="M0 0 C0.33 0.66 0.66 1.32 1 2 C-3.91064627 5.20695267 -6.95162041 6.69788995 -13 6 C-13.99 5.34 -14.98 4.68 -16 4 C-15.67 3.34 -15.34 2.68 -15 2 C-14.319375 2.185625 -13.63875 2.37125 -12.9375 2.5625 C-7.98663274 3.29986321 -4.17045858 2.78030572 0 0 Z " fill="#F6997C" transform="translate(415,560)"/>
<path d="M0 0 C1.6852084 4.07679159 0.16939007 6.83075593 -1.4375 10.75 C-1.91058594 11.92046875 -2.38367188 13.0909375 -2.87109375 14.296875 C-3.24363281 15.18890625 -3.61617187 16.0809375 -4 17 C-5.23922223 13.28233332 -4.57018942 11.56110463 -3.5625 7.8125 C-3.13130859 6.18248047 -3.13130859 6.18248047 -2.69140625 4.51953125 C-2.46324219 3.68808594 -2.23507812 2.85664062 -2 2 C-1.34 2 -0.68 2 0 2 C0 1.34 0 0.68 0 0 Z " fill="#F7A185" transform="translate(615,556)"/>
<path d="M0 0 C3.75068199 0.45008184 4.78988517 1.50101252 7.125 4.375 C6.795 5.035 6.465 5.695 6.125 6.375 C5.238125 5.900625 4.35125 5.42625 3.4375 4.9375 C0.55457244 3.57762851 -1.75110623 2.83439614 -4.875 2.375 C-2.875 0.375 -2.875 0.375 0 0 Z " fill="#FAAB94" transform="translate(704.875,472.625)"/>
<path d="M0 0 C1.32 0.33 2.64 0.66 4 1 C0.7 3.31 -2.6 5.62 -6 8 C-6.66 7.67 -7.32 7.34 -8 7 C-6.76446724 5.79745476 -5.51097661 4.61333768 -4.25 3.4375 C-3.55390625 2.77621094 -2.8578125 2.11492188 -2.140625 1.43359375 C-1.43421875 0.96050781 -0.7278125 0.48742187 0 0 Z " fill="#F7A389" transform="translate(289,523)"/>
<path d="M0 0 C0.66 0.33 1.32 0.66 2 1 C-3.29230769 5.92307692 -3.29230769 5.92307692 -6.875 6.3125 C-7.926875 6.1578125 -7.926875 6.1578125 -9 6 C-3.30379747 1.25316456 -3.30379747 1.25316456 0 0 Z " fill="#F7A991" transform="translate(880,567)"/>
<path d="M0 0 C3.26008643 3.16952847 6.22237877 6.39937989 9 10 C5.57569106 8.76344399 2.59887381 7.59887381 0 5 C-0.25 2.3125 -0.25 2.3125 0 0 Z " fill="#F6A78F" transform="translate(236,566)"/>
<path d="M0 0 C0.33 1.32 0.66 2.64 1 4 C-1.97 6.475 -1.97 6.475 -5 9 C-5 4.61031544 -2.87194899 3.23094261 0 0 Z " fill="#F8A88F" transform="translate(831,494)"/>
<path d="M0 0 C0 3.77910478 -0.99703962 4.46106101 -3.5 7.1875 C-4.1496875 7.90292969 -4.799375 8.61835937 -5.46875 9.35546875 C-5.9740625 9.89816406 -6.479375 10.44085937 -7 11 C-7.66 10.67 -8.32 10.34 -9 10 C-6.03 6.7 -3.06 3.4 0 0 Z " fill="#FDC5B3" transform="translate(431,545)"/>
<path d="M0 0 C0.66 0 1.32 0 2 0 C2.66 4.29 3.32 8.58 4 13 C3.34 13 2.68 13 2 13 C1.86722656 12.37351562 1.73445312 11.74703125 1.59765625 11.1015625 C1.42105469 10.28429687 1.24445312 9.46703125 1.0625 8.625 C0.80146484 7.40683594 0.80146484 7.40683594 0.53515625 6.1640625 C0.07669307 3.970537 0.07669307 3.970537 -1 2 C-0.67 1.34 -0.34 0.68 0 0 Z " fill="#F69F85" transform="translate(899,548)"/>
<path d="M0 0 C2.09375 0.41796875 2.09375 0.41796875 4 1 C2.73760288 1.86658615 1.46472499 2.71792059 0.1875 3.5625 C-0.87404297 4.27599609 -0.87404297 4.27599609 -1.95703125 5.00390625 C-4 6 -4 6 -7 5 C-6.401875 4.731875 -5.80375 4.46375 -5.1875 4.1875 C-2.94489213 3.1305255 -2.94489213 3.1305255 -1.5 1.3125 C-0.7575 0.6628125 -0.7575 0.6628125 0 0 Z " fill="#F39F85" transform="translate(416,573)"/>
<path d="M0 0 C-7.28571429 4.57142857 -7.28571429 4.57142857 -12 4 C-8.71298741 1.21868166 -4.24676932 -2.12338466 0 0 Z " fill="#F4A38B" transform="translate(964,570)"/>
<path d="M0 0 C2.475 0.99 2.475 0.99 5 2 C4.67 4.31 4.34 6.62 4 9 C3.34 8.34 2.68 7.68 2 7 C2 5.68 2 4.36 2 3 C1.01 2.34 0.02 1.68 -1 1 C-0.67 0.67 -0.34 0.34 0 0 Z " fill="#FAA489" transform="translate(481,504)"/>
<path d="M0 0 C0.66 0.33 1.32 0.66 2 1 C0.8141763 4.37503669 -0.27573689 6.64722731 -3 9 C-2.25 2.25 -2.25 2.25 0 0 Z " fill="#F9AA91" transform="translate(61,453)"/>
<path d="M0 0 C0 3.23861295 -0.6250851 5.09740189 -2 8 C-2.99 8.495 -2.99 8.495 -4 9 C-3.46930939 5.17902761 -2.50298434 2.93828597 0 0 Z " fill="#FAB39D" transform="translate(764,516)"/>
<path d="M0 0 C1.65 0 3.3 0 5 0 C5 0.33 5 0.66 5 1 C3.35 1 1.7 1 0 1 C0 0.67 0 0.34 0 0 Z " fill="#F6B7A6" transform="translate(802,468)"/>
<path d="M0 0 C0.66 0.66 1.32 1.32 2 2 C1.34 2 0.68 2 0 2 C0 1.34 0 0.68 0 0 Z " fill="#FFB9A6" transform="translate(341,560)"/>
<path d="M0 0 C0.99 0.495 0.99 0.495 2 1 C1.01 1.495 1.01 1.495 0 2 C0 1.34 0 0.68 0 0 Z " fill="#FDBBA8" transform="translate(388,486)"/>
<path d="M0 0 C0.99 0.495 0.99 0.495 2 1 C1.01 1.495 1.01 1.495 0 2 C0 1.34 0 0.68 0 0 Z " fill="#FEBDAC" transform="translate(665,428)"/>
<path d="M0 0 C2 1 2 1 2 1 Z " fill="#F3B4A6" transform="translate(853,580)"/>
<path d="M0 0 C2 1 2 1 2 1 Z " fill="#F5B4A2" transform="translate(331,579)"/>
<path d="" fill="#FCBDA9" transform="translate(0,0)"/>
<path d="" fill="#FCB9A8" transform="translate(0,0)"/>
<path d="" fill="#FBB8A7" transform="translate(0,0)"/>
<path d="" fill="#FFBDAA" transform="translate(0,0)"/>
<path d="" fill="#FFC0B0" transform="translate(0,0)"/>
<path d="" fill="#F5B7A8" transform="translate(0,0)"/>
<path d="M0 0 C2 1 2 1 2 1 Z " fill="#F4BAA9" transform="translate(1001,521)"/>
<path d="M0 0 C2 1 2 1 2 1 Z " fill="#FEB9A3" transform="translate(861,487)"/>
<path d="M0 0 C2 1 2 1 2 1 Z " fill="#FEBEA9" transform="translate(797,487)"/>
<path d="M0 0 C2 1 2 1 2 1 Z " fill="#F8BBAC" transform="translate(279,467)"/>
<path d="M0 0 C2 1 2 1 2 1 Z " fill="#F4B5A4" transform="translate(969,466)"/>
<path d="M0 0 C2 1 2 1 2 1 Z " fill="#FFBEAA" transform="translate(108,430)"/>
<path d="" fill="#757676" transform="translate(0,0)"/>
<path d="" fill="#F5B7A4" transform="translate(0,0)"/>
<path d="" fill="#F2B6A5" transform="translate(0,0)"/>
<path d="" fill="#F5B6A6" transform="translate(0,0)"/>
<path d="" fill="#F4B5A4" transform="translate(0,0)"/>
<path d="" fill="#F5B8A9" transform="translate(0,0)"/>
<path d="" fill="#F4B4A5" transform="translate(0,0)"/>
<path d="" fill="#F7B7A7" transform="translate(0,0)"/>
<path d="" fill="#F4B4A4" transform="translate(0,0)"/>
<path d="" fill="#F3B5A5" transform="translate(0,0)"/>
<path d="" fill="#F2BBAD" transform="translate(0,0)"/>
<path d="" fill="#F4B6A4" transform="translate(0,0)"/>
<path d="" fill="#F4B9A6" transform="translate(0,0)"/>
<path d="" fill="#F7B7A5" transform="translate(0,0)"/>
<path d="" fill="#F9B7A6" transform="translate(0,0)"/>
<path d="" fill="#F5B7A7" transform="translate(0,0)"/>
<path d="" fill="#FABCA9" transform="translate(0,0)"/>
<path d="" fill="#F7B6A4" transform="translate(0,0)"/>
<path d="" fill="#F7B8A6" transform="translate(0,0)"/>
<path d="" fill="#F7B6A5" transform="translate(0,0)"/>
<path d="" fill="#FABAA7" transform="translate(0,0)"/>
<path d="" fill="#F5B9A6" transform="translate(0,0)"/>
<path d="" fill="#F7B6A4" transform="translate(0,0)"/>
<path d="" fill="#F8B9A6" transform="translate(0,0)"/>
<path d="" fill="#FBB8A6" transform="translate(0,0)"/>
<path d="" fill="#FDB8A4" transform="translate(0,0)"/>
<path d="" fill="#FCBAA9" transform="translate(0,0)"/>
<path d="" fill="#FCB9A6" transform="translate(0,0)"/>
<path d="" fill="#FCBAA7" transform="translate(0,0)"/>
<path d="" fill="#FFBEAC" transform="translate(0,0)"/>
<path d="" fill="#FFBBA8" transform="translate(0,0)"/>
<path d="" fill="#FDB8A6" transform="translate(0,0)"/>
<path d="" fill="#FFC1AA" transform="translate(0,0)"/>
<path d="" fill="#FDBCA9" transform="translate(0,0)"/>
<path d="" fill="#FCBCAA" transform="translate(0,0)"/>
<path d="" fill="#FDBEAD" transform="translate(0,0)"/>
<path d="" fill="#FFBCAB" transform="translate(0,0)"/>
<path d="" fill="#FFBFAB" transform="translate(0,0)"/>
<path d="" fill="#FFBBA9" transform="translate(0,0)"/>
<path d="" fill="#FCB9A8" transform="translate(0,0)"/>
<path d="" fill="#FFBDAB" transform="translate(0,0)"/>
<path d="" fill="#FEBCAA" transform="translate(0,0)"/>
<path d="" fill="#FFBCAA" transform="translate(0,0)"/>
<path d="" fill="#FDBDAB" transform="translate(0,0)"/>
<path d="" fill="#FDBAA7" transform="translate(0,0)"/>
<path d="" fill="#FEBAAA" transform="translate(0,0)"/>
<path d="" fill="#FCBAA7" transform="translate(0,0)"/>
<path d="" fill="#FBBDA9" transform="translate(0,0)"/>
<path d="" fill="#FDBCA9" transform="translate(0,0)"/>
<path d="" fill="#FDBAA9" transform="translate(0,0)"/>
<path d="" fill="#FABFB2" transform="translate(0,0)"/>
<path d="" fill="#FFBDAA" transform="translate(0,0)"/>
<path d="" fill="#FFBBA7" transform="translate(0,0)"/>
<path d="" fill="#FFB9A8" transform="translate(0,0)"/>
<path d="" fill="#FFBBAA" transform="translate(0,0)"/>
<path d="" fill="#FBBBAA" transform="translate(0,0)"/>
<path d="" fill="#F7B8A9" transform="translate(0,0)"/>
<path d="" fill="#FCBBA8" transform="translate(0,0)"/>
<path d="" fill="#FFBEAC" transform="translate(0,0)"/>
<path d="" fill="#FEB8A5" transform="translate(0,0)"/>
<path d="" fill="#FFBBA9" transform="translate(0,0)"/>
<path d="" fill="#FEBBA6" transform="translate(0,0)"/>
<path d="" fill="#FFBBA7" transform="translate(0,0)"/>
<path d="" fill="#FEBDAB" transform="translate(0,0)"/>
<path d="" fill="#FFBBAA" transform="translate(0,0)"/>
<path d="" fill="#FEBAA8" transform="translate(0,0)"/>
<path d="" fill="#FABAA7" transform="translate(0,0)"/>
<path d="" fill="#FEBCA9" transform="translate(0,0)"/>
<path d="" fill="#FDBAA8" transform="translate(0,0)"/>
<path d="" fill="#FCBBAA" transform="translate(0,0)"/>
<path d="" fill="#FEBAA8" transform="translate(0,0)"/>
<path d="" fill="#FFBCAB" transform="translate(0,0)"/>
<path d="" fill="#FDBDAB" transform="translate(0,0)"/>
<path d="" fill="#FBB8AA" transform="translate(0,0)"/>
<path d="" fill="#FFBEAC" transform="translate(0,0)"/>
<path d="" fill="#FFBEAC" transform="translate(0,0)"/>
<path d="" fill="#FBBFAF" transform="translate(0,0)"/>
<path d="" fill="#FFBEAB" transform="translate(0,0)"/>
<path d="" fill="#FEBAA6" transform="translate(0,0)"/>
<path d="" fill="#FEBCA9" transform="translate(0,0)"/>
<path d="" fill="#FFBAA8" transform="translate(0,0)"/>
<path d="" fill="#FFBFAC" transform="translate(0,0)"/>
<path d="" fill="#FCBBAA" transform="translate(0,0)"/>
<path d="" fill="#F7BAA9" transform="translate(0,0)"/>
<path d="" fill="#FDBDAE" transform="translate(0,0)"/>
<path d="" fill="#FFBCA9" transform="translate(0,0)"/>
<path d="" fill="#FFBDA8" transform="translate(0,0)"/>
<path d="" fill="#FDBEAC" transform="translate(0,0)"/>
<path d="" fill="#FFBDAC" transform="translate(0,0)"/>
<path d="" fill="#FABCAB" transform="translate(0,0)"/>
<path d="" fill="#FFBEA9" transform="translate(0,0)"/>
<path d="" fill="#FEBEAB" transform="translate(0,0)"/>
<path d="" fill="#FDBBA9" transform="translate(0,0)"/>
<path d="" fill="#FFBDA9" transform="translate(0,0)"/>
<path d="" fill="#FDC2B1" transform="translate(0,0)"/>
<path d="" fill="#FCBDAB" transform="translate(0,0)"/>
<path d="" fill="#FFBCA8" transform="translate(0,0)"/>
<path d="" fill="#FFBAA4" transform="translate(0,0)"/>
<path d="" fill="#FFBCAA" transform="translate(0,0)"/>
<path d="" fill="#FDBAA8" transform="translate(0,0)"/>
<path d="" fill="#FCBDAA" transform="translate(0,0)"/>
<path d="" fill="#FFBFAC" transform="translate(0,0)"/>
<path d="" fill="#FEBDAD" transform="translate(0,0)"/>
<path d="" fill="#FEBCA9" transform="translate(0,0)"/>
<path d="" fill="#FDBDAD" transform="translate(0,0)"/>
<path d="" fill="#FFBAA6" transform="translate(0,0)"/>
<path d="" fill="#FFBBA9" transform="translate(0,0)"/>
<path d="" fill="#FFBCA8" transform="translate(0,0)"/>
<path d="" fill="#FFBEAA" transform="translate(0,0)"/>
<path d="" fill="#FEBCAC" transform="translate(0,0)"/>
<path d="" fill="#FABEAA" transform="translate(0,0)"/>
<path d="" fill="#FEBCAA" transform="translate(0,0)"/>
<path d="" fill="#FFBEAD" transform="translate(0,0)"/>
<path d="" fill="#FFBCAA" transform="translate(0,0)"/>
<path d="" fill="#FDC1AD" transform="translate(0,0)"/>
<path d="" fill="#FCB297" transform="translate(0,0)"/>
<path d="" fill="#FCBDA8" transform="translate(0,0)"/>
<path d="" fill="#FEC1B0" transform="translate(0,0)"/>
<path d="" fill="#FFBBA7" transform="translate(0,0)"/>
<path d="" fill="#FCB9A6" transform="translate(0,0)"/>
<path d="" fill="#F9BBAD" transform="translate(0,0)"/>
<path d="" fill="#FEBCA9" transform="translate(0,0)"/>
<path d="" fill="#FBBAAA" transform="translate(0,0)"/>
<path d="" fill="#FAB9A9" transform="translate(0,0)"/>
<path d="" fill="#FDBDA9" transform="translate(0,0)"/>
<path d="" fill="#F8BFAF" transform="translate(0,0)"/>
<path d="" fill="#FFC0AF" transform="translate(0,0)"/>
<path d="" fill="#F4BAAE" transform="translate(0,0)"/>
<path d="" fill="#F5B9A7" transform="translate(0,0)"/>
<path d="" fill="#FABCAB" transform="translate(0,0)"/>
<path d="" fill="#FCC0B1" transform="translate(0,0)"/>
<path d="" fill="#FFBDAD" transform="translate(0,0)"/>
<path d="" fill="#FCBDAC" transform="translate(0,0)"/>
<path d="" fill="#F9BBAA" transform="translate(0,0)"/>
<path d="" fill="#FBBAA6" transform="translate(0,0)"/>
<path d="" fill="#F7BFB0" transform="translate(0,0)"/>
<path d="" fill="#FCC1B1" transform="translate(0,0)"/>
<path d="" fill="#F3B8A7" transform="translate(0,0)"/>
<path d="" fill="#F4BBAB" transform="translate(0,0)"/>
<path d="" fill="#F6BAA6" transform="translate(0,0)"/>
<path d="" fill="#F7C3B3" transform="translate(0,0)"/>
<path d="" fill="#F5B9A7" transform="translate(0,0)"/>
<path d="" fill="#F7B8A7" transform="translate(0,0)"/>
<path d="" fill="#F7BAAC" transform="translate(0,0)"/>
<path d="" fill="#F7BAAB" transform="translate(0,0)"/>
<path d="" fill="#F6B6A6" transform="translate(0,0)"/>
<path d="" fill="#F9BAA8" transform="translate(0,0)"/>
<path d="" fill="#FDB9A7" transform="translate(0,0)"/>
<path d="" fill="#FBB8A7" transform="translate(0,0)"/>
<path d="" fill="#F2B8A7" transform="translate(0,0)"/>
<path d="" fill="#FDBCAC" transform="translate(0,0)"/>
<path d="" fill="#FDBDAD" transform="translate(0,0)"/>
<path d="" fill="#FBBCA9" transform="translate(0,0)"/>
<path d="" fill="#FEBDAA" transform="translate(0,0)"/>
<path d="" fill="#FABBAA" transform="translate(0,0)"/>
<path d="" fill="#FFBDAC" transform="translate(0,0)"/>
<path d="" fill="#FCBEAB" transform="translate(0,0)"/>
<path d="" fill="#FABDA8" transform="translate(0,0)"/>
<path d="" fill="#FABBA9" transform="translate(0,0)"/>
<path d="" fill="#FEBDAB" transform="translate(0,0)"/>
<path d="" fill="#FEBDAE" transform="translate(0,0)"/>
<path d="" fill="#FDBDAD" transform="translate(0,0)"/>
<path d="" fill="#F3BBAB" transform="translate(0,0)"/>
<path d="" fill="#FFBFAA" transform="translate(0,0)"/>
<path d="" fill="#FCB8A7" transform="translate(0,0)"/>
<path d="" fill="#FFBDAD" transform="translate(0,0)"/>
<path d="" fill="#FDBCA8" transform="translate(0,0)"/>
<path d="" fill="#F7BDAC" transform="translate(0,0)"/>
<path d="" fill="#F7B8A6" transform="translate(0,0)"/>
<path d="" fill="#F6B6A6" transform="translate(0,0)"/>
</svg>