<?xml version="1.0" encoding="UTF-8"?>
<svg version="1.1" xmlns="http://www.w3.org/2000/svg" width="1024" height="1024">
<path d="M0 0 C0.81549316 0.1438916 1.63098633 0.2877832 2.47119141 0.43603516 C36.2611763 6.55471269 68.4729773 21.14305346 95 43 C95.5347998 43.43328613 96.06959961 43.86657227 96.62060547 44.31298828 C104.44292459 50.6736657 111.72073292 57.52352934 118.875 64.625 C119.67897217 65.41970703 120.48294434 66.21441406 121.3112793 67.03320312 C122.051604 67.77763672 122.79192871 68.52207031 123.5546875 69.2890625 C124.21968262 69.95631348 124.88467773 70.62356445 125.56982422 71.31103516 C127 73 127 73 127 75 C127.66 75 128.32 75 129 75 C130.13170313 76.22795623 131.20681006 77.50851257 132.25 78.8125 C135.21655179 82.26939093 137.54409944 84.60753108 142 86 C146.2984897 85.7737637 150.19754951 85.06418741 154 83 C154.6782557 81.67252441 155.34357184 80.33840363 156 79 C157.3659668 77.31518555 157.3659668 77.31518555 158.94921875 75.63671875 C159.54202637 75.00483643 160.13483398 74.3729541 160.74560547 73.72192383 C161.38643066 73.05056396 162.02725586 72.3792041 162.6875 71.6875 C163.35668457 70.98326904 164.02586914 70.27903809 164.71533203 69.5534668 C166.11530004 68.08581127 167.51834222 66.62108248 168.92431641 65.15917969 C170.25394879 63.77606174 171.57953622 62.38903686 172.89990234 60.99707031 C182.17739579 51.23206921 191.99931778 42.77657614 203 35 C203.58571777 34.58556641 204.17143555 34.17113281 204.77490234 33.74414062 C224.89083334 19.73514581 247.41993602 9.73138654 271.125 3.6875 C272.02903564 3.45699951 272.93307129 3.22649902 273.86450195 2.98901367 C289.42362469 -0.74742616 304.66029725 -2.50299913 320.65136719 -2.39111328 C323.3670502 -2.37504703 326.08123675 -2.39106651 328.796875 -2.41015625 C344.88278597 -2.42962831 360.8557522 -0.65414483 376.5 3.1875 C377.35271484 3.39544189 378.20542969 3.60338379 379.08398438 3.81762695 C389.0460016 6.36742898 398.54814884 9.97909531 408 14 C408.86625 14.36722168 409.7325 14.73444336 410.625 15.11279297 C428.10367139 22.65892323 444.23185759 32.6553115 458.7109375 45.04296875 C461.68907358 47.58912263 464.8002531 49.94087496 467.9296875 52.296875 C473.20570759 56.63714813 477.64811541 61.86947868 482.15820312 66.97851562 C483.39885411 68.35606603 484.69542842 69.68282386 486 71 C486.66 71 487.32 71 488 71 C488.08636719 71.55816406 488.17273438 72.11632812 488.26171875 72.69140625 C489.21999556 75.68792262 490.80616673 77.52171096 492.8125 79.9375 C493.49957031 80.77152344 494.18664062 81.60554688 494.89453125 82.46484375 C495.93673828 83.71974609 495.93673828 83.71974609 497 85 C500.54995832 89.27608615 503.27504793 93.70938591 506.01953125 98.53125 C507.3650702 100.8879336 508.72867373 103.21345955 510.13671875 105.53125 C538.36315383 152.72232115 542.77745958 211.38857701 530 264 C528.58764753 269.42879911 526.86412514 274.70792438 525 280 C524.60683594 281.20398438 524.21367188 282.40796875 523.80859375 283.6484375 C515.26034043 308.93427618 500.46222294 330.98768355 483.44628906 351.26269531 C482.47626499 352.42790316 481.51992211 353.60462795 480.57714844 354.79199219 C479.42719137 356.22964882 478.2186029 357.62004898 477 359 C476.34 359 475.68 359 475 359 C475 359.66 475 360.32 475 361 C474.34 361 473.68 361 473 361 C473 361.66 473 362.32 473 363 C470.66652351 365.53348876 468.29333118 367.77436063 465.5625 369.875 C462.84162147 372.13133829 460.73163812 374.55953426 458.4765625 377.265625 C456.44840296 379.64790763 454.24054135 381.81842026 452 384 C451.278125 384.763125 450.55625 385.52625 449.8125 386.3125 C448 388 448 388 446 388 C445.7525 388.5775 445.505 389.155 445.25 389.75 C443.81700012 392.32939979 442.21575324 394.06121592 440 396 C439.34 396 438.68 396 438 396 C437.7525 396.5775 437.505 397.155 437.25 397.75 C435.81700012 400.32939979 434.21575324 402.06121592 432 404 C431.34 404 430.68 404 430 404 C429.64421875 404.84256348 429.64421875 404.84256348 429.28125 405.70214844 C427.70680643 408.52582658 425.78315455 410.47614842 423.5 412.765625 C422.613125 413.65507813 421.72625 414.54453125 420.8125 415.4609375 C419.884375 416.38132812 418.95625 417.30171875 418 418.25 C416.6078125 419.65378906 416.6078125 419.65378906 415.1875 421.0859375 C414.300625 421.97023438 413.41375 422.85453125 412.5 423.765625 C411.6853125 424.57805664 410.870625 425.39048828 410.03125 426.22753906 C408 428 408 428 406 428 C405.7525 428.5775 405.505 429.155 405.25 429.75 C403.81700012 432.32939979 402.21575324 434.06121592 400 436 C399.34 436 398.68 436 398 436 C397.773125 436.5775 397.54625 437.155 397.3125 437.75 C395.65599487 440.58972308 393.57432012 441.95224536 391 444 C389.43994658 445.71605876 387.95950319 447.48597189 386.47265625 449.265625 C383.77895162 452.43805168 380.93338735 455.28767808 377.625 457.8125 C374.69733867 460.25221777 372.38056982 462.94141855 369.90625 465.828125 C366.79034019 469.37821896 363.57664636 472.908462 360 476 C359.34 476 358.68 476 358 476 C357.7525 476.5775 357.505 477.155 357.25 477.75 C355.81700012 480.32939979 354.21575324 482.06121592 352 484 C351.34 484 350.68 484 350 484 C349.74994044 484.57523785 349.49988089 485.15047569 349.24224377 485.74314499 C347.82482303 488.31825398 346.20719259 490.03588054 344.12409973 492.10968018 C342.9108905 493.32484566 342.9108905 493.32484566 341.673172 494.56455994 C340.78433823 495.44463211 339.89550446 496.32470428 338.97973633 497.23144531 C338.03470916 498.17427032 337.0901301 499.11754465 336.14596558 500.06123352 C334.113042 502.09122553 332.07700355 504.11802206 330.0384922 506.14240265 C326.80946634 509.34912163 323.58758026 512.56295065 320.36662292 515.777771 C315.26474346 520.86826834 310.15821726 525.95407482 305.04964322 531.037853 C295.91884112 540.12439674 286.79348309 549.21639891 277.67347544 558.31377673 C274.47674314 561.50214655 271.27722418 564.68768475 268.07536948 567.87091017 C266.07405479 569.86150031 264.07483685 571.85418683 262.07610703 573.84737206 C260.72063768 575.19777482 259.36260586 576.54560402 258.00447083 577.89332581 C253.67159379 582.2182224 249.49423441 586.59614564 245.55149364 591.28145981 C243.41980133 593.64266763 241.02718194 595.60261456 238.5703125 597.61328125 C236.4220834 599.51034923 234.7776887 601.76142905 233 604 C232.34 604 231.68 604 231 604 C230.73445313 604.5878125 230.46890625 605.175625 230.1953125 605.78125 C220.85602788 623.11691557 193.15206857 636.66526822 175.33984375 642.12109375 C164.34460481 645.17470538 153.45583339 647.6888475 142 647 C141.02812744 646.94634277 141.02812744 646.94634277 140.03662109 646.89160156 C116.27220397 645.43392297 94.73101018 637.77330744 76 623 C74.77023437 622.03682861 74.77023437 622.03682861 73.515625 621.05419922 C66.71106215 615.61183769 60.47394258 609.78609304 54.34350586 603.60424805 C52.78272578 602.03251687 51.21122294 600.47205482 49.63867188 598.91210938 C48.63998128 597.91210079 47.6419093 596.91147393 46.64453125 595.91015625 C45.75096924 595.01433838 44.85740723 594.11852051 43.93676758 593.19555664 C42 591 42 591 42 589 C41.43267151 588.75733398 40.86534302 588.51466797 40.28082275 588.26464844 C37.56103662 586.75660785 35.70898435 584.96323905 33.50683594 582.765625 C32.62622498 581.89131836 31.74561401 581.01701172 30.83831787 580.11621094 C29.8867478 579.16106205 28.93543964 578.20565216 27.984375 577.25 C27.00389341 576.27086602 26.02311513 575.29202907 25.04205322 574.31347656 C22.99123841 572.26560571 20.94407365 570.21417216 18.89941406 568.16015625 C16.27428192 565.52359985 13.64023305 562.89616355 11.00341415 560.27130127 C8.9787041 558.25380379 6.95876392 556.23158501 4.94025421 554.20788574 C3.97045069 553.23674562 2.99915258 552.26709572 2.02635956 551.2989502 C0.67127264 549.94892166 -0.67675686 548.59182027 -2.02441406 547.234375 C-2.79400452 546.46319336 -3.56359497 545.69201172 -4.35650635 544.89746094 C-6 543 -6 543 -6 541 C-6.5775 540.7525 -7.155 540.505 -7.75 540.25 C-10.32939979 538.81700012 -12.06121592 537.21575324 -14 535 C-14 534.34 -14 533.68 -14 533 C-14.58247498 532.7421875 -15.16494995 532.484375 -15.76507568 532.21875 C-18.19063451 530.8960431 -19.80514441 529.44871546 -21.75878906 527.5 C-22.83945648 526.42878906 -22.83945648 526.42878906 -23.94195557 525.3359375 C-24.70876648 524.56507813 -25.47557739 523.79421875 -26.265625 523 C-27.45572174 521.81277344 -27.45572174 521.81277344 -28.66986084 520.6015625 C-30.34324054 518.92954263 -32.01410181 517.25499903 -33.68261719 515.578125 C-36.24713597 513.00287602 -38.82216989 510.43848948 -41.3984375 507.875 C-43.02147527 506.25064116 -44.64389281 504.62566231 -46.265625 503 C-47.42798676 501.84371094 -47.42798676 501.84371094 -48.61383057 500.6640625 C-49.32166687 499.94992187 -50.02950317 499.23578125 -50.75878906 498.5 C-51.38626038 497.8709375 -52.01373169 497.241875 -52.66021729 496.59375 C-54 495 -54 495 -54 493 C-54.54511703 492.77950611 -55.09023405 492.55901222 -55.65186977 492.3318367 C-58.75551862 490.57147716 -61.07703986 488.20213058 -63.57008362 485.69061279 C-64.39661301 484.86982172 -64.39661301 484.86982172 -65.23983997 484.03244901 C-67.08598936 482.19662215 -68.92490763 480.35372034 -70.76391602 478.51074219 C-72.08613588 477.19286964 -73.40877306 475.87541567 -74.73179626 474.55834961 C-78.32789868 470.97565754 -81.91754724 467.38656421 -85.50568509 463.79589748 C-88.50764372 460.79286888 -91.51257461 457.79282317 -94.51746219 454.7927258 C-101.6172769 447.70401683 -108.7117371 440.60997981 -115.80297852 433.51269531 C-123.09453595 426.2151189 -130.39517181 418.92671787 -137.70040756 411.64283633 C-143.98546862 405.37546631 -150.2646258 399.10222303 -156.539226 392.82438016 C-160.28033808 389.08146438 -164.02358432 385.34075166 -167.77258492 381.60573578 C-171.30796111 378.08305285 -174.83583298 374.55301452 -178.35839272 371.01751709 C-179.64282621 369.73074173 -180.92974773 368.44644354 -182.21951675 367.16501617 C-219.66453486 329.94448398 -247.74240121 277.38130039 -248.23828125 223.69140625 C-248.24802979 222.81556381 -248.25777832 221.93972137 -248.26782227 221.03733826 C-248.43618354 201.9907322 -248.32238275 183.64982071 -244 165 C-243.81808105 164.17322754 -243.63616211 163.34645508 -243.44873047 162.49462891 C-237.87782739 137.57740826 -227.97999363 113.67626925 -213.6171875 92.5546875 C-211.82171078 90.22227611 -211.82171078 90.22227611 -212 88 C-210.85268563 86.83342102 -209.69934448 85.67227503 -208.51953125 84.53857422 C-205.60633265 81.58886702 -203.08810945 78.29613559 -200.5 75.0625 C-198.33552464 72.37322725 -196.16952935 69.68519759 -194 67 C-193.54061035 66.43039551 -193.0812207 65.86079102 -192.60791016 65.27392578 C-190.35942596 62.52407309 -188.09869843 60.02974759 -185.375 57.75 C-182.13925696 55.00232993 -179.03189284 52.15587856 -175.9375 49.25 C-129.31975172 6.82333559 -61.78668494 -11.2170411 0 0 Z " fill="#FE9C81" transform="translate(368,197)"/>
<path d="M0 0 C0.81549316 0.1438916 1.63098633 0.2877832 2.47119141 0.43603516 C36.2611763 6.55471269 68.4729773 21.14305346 95 43 C95.5347998 43.43328613 96.06959961 43.86657227 96.62060547 44.31298828 C104.44292459 50.6736657 111.72073292 57.52352934 118.875 64.625 C119.67897217 65.41970703 120.48294434 66.21441406 121.3112793 67.03320312 C122.051604 67.77763672 122.79192871 68.52207031 123.5546875 69.2890625 C124.21968262 69.95631348 124.88467773 70.62356445 125.56982422 71.31103516 C127 73 127 73 127 75 C127.66 75 128.32 75 129 75 C130.13170313 76.22795623 131.20681006 77.50851257 132.25 78.8125 C135.21655179 82.26939093 137.54409944 84.60753108 142 86 C146.2984897 85.7737637 150.19754951 85.06418741 154 83 C154.6782557 81.67252441 155.34357184 80.33840363 156 79 C157.3659668 77.31518555 157.3659668 77.31518555 158.94921875 75.63671875 C159.54202637 75.00483643 160.13483398 74.3729541 160.74560547 73.72192383 C161.38643066 73.05056396 162.02725586 72.3792041 162.6875 71.6875 C163.35668457 70.98326904 164.02586914 70.27903809 164.71533203 69.5534668 C166.11530004 68.08581127 167.51834222 66.62108248 168.92431641 65.15917969 C170.25394879 63.77606174 171.57953622 62.38903686 172.89990234 60.99707031 C182.17739579 51.23206921 191.99931778 42.77657614 203 35 C203.58571777 34.58556641 204.17143555 34.17113281 204.77490234 33.74414062 C224.89083334 19.73514581 247.41993602 9.73138654 271.125 3.6875 C272.02903564 3.45699951 272.93307129 3.22649902 273.86450195 2.98901367 C289.42362469 -0.74742616 304.66029725 -2.50299913 320.65136719 -2.39111328 C323.3670502 -2.37504703 326.08123675 -2.39106651 328.796875 -2.41015625 C344.88278597 -2.42962831 360.8557522 -0.65414483 376.5 3.1875 C377.35271484 3.39544189 378.20542969 3.60338379 379.08398438 3.81762695 C389.0460016 6.36742898 398.54814884 9.97909531 408 14 C408.86625 14.36722168 409.7325 14.73444336 410.625 15.11279297 C428.10367139 22.65892323 444.23185759 32.6553115 458.7109375 45.04296875 C461.68907358 47.58912263 464.8002531 49.94087496 467.9296875 52.296875 C473.20570759 56.63714813 477.64811541 61.86947868 482.15820312 66.97851562 C483.39885411 68.35606603 484.69542842 69.68282386 486 71 C486.66 71 487.32 71 488 71 C488.08636719 71.55816406 488.17273438 72.11632812 488.26171875 72.69140625 C489.21999556 75.68792262 490.80616673 77.52171096 492.8125 79.9375 C493.49957031 80.77152344 494.18664062 81.60554688 494.89453125 82.46484375 C495.93673828 83.71974609 495.93673828 83.71974609 497 85 C500.54995832 89.27608615 503.27504793 93.70938591 506.01953125 98.53125 C507.3650702 100.8879336 508.72867373 103.21345955 510.13671875 105.53125 C538.36315383 152.72232115 542.77745958 211.38857701 530 264 C528.58764753 269.42879911 526.86412514 274.70792438 525 280 C524.60683594 281.20398438 524.21367188 282.40796875 523.80859375 283.6484375 C515.26034043 308.93427618 500.46222294 330.98768355 483.44628906 351.26269531 C482.47626499 352.42790316 481.51992211 353.60462795 480.57714844 354.79199219 C479.42719137 356.22964882 478.2186029 357.62004898 477 359 C476.34 359 475.68 359 475 359 C475 359.66 475 360.32 475 361 C474.34 361 473.68 361 473 361 C473 361.66 473 362.32 473 363 C470.66652351 365.53348876 468.29333118 367.77436063 465.5625 369.875 C462.84162147 372.13133829 460.73163812 374.55953426 458.4765625 377.265625 C456.44840296 379.64790763 454.24054135 381.81842026 452 384 C451.278125 384.763125 450.55625 385.52625 449.8125 386.3125 C448 388 448 388 446 388 C445.7525 388.5775 445.505 389.155 445.25 389.75 C443.81700012 392.32939979 442.21575324 394.06121592 440 396 C439.34 396 438.68 396 438 396 C437.7525 396.5775 437.505 397.155 437.25 397.75 C435.81700012 400.32939979 434.21575324 402.06121592 432 404 C431.34 404 430.68 404 430 404 C429.64421875 404.84256348 429.64421875 404.84256348 429.28125 405.70214844 C427.70680643 408.52582658 425.78315455 410.47614842 423.5 412.765625 C422.613125 413.65507813 421.72625 414.54453125 420.8125 415.4609375 C419.884375 416.38132812 418.95625 417.30171875 418 418.25 C416.6078125 419.65378906 416.6078125 419.65378906 415.1875 421.0859375 C414.300625 421.97023438 413.41375 422.85453125 412.5 423.765625 C411.6853125 424.57805664 410.870625 425.39048828 410.03125 426.22753906 C408 428 408 428 406 428 C405.7525 428.5775 405.505 429.155 405.25 429.75 C403.81700012 432.32939979 402.21575324 434.06121592 400 436 C399.34 436 398.68 436 398 436 C397.773125 436.5775 397.54625 437.155 397.3125 437.75 C395.65599487 440.58972308 393.57432012 441.95224536 391 444 C389.43994658 445.71605876 387.95950319 447.48597189 386.47265625 449.265625 C383.77895162 452.43805168 380.93338735 455.28767808 377.625 457.8125 C374.69733867 460.25221777 372.38056982 462.94141855 369.90625 465.828125 C366.79034019 469.37821896 363.57664636 472.908462 360 476 C359.34 476 358.68 476 358 476 C357.7525 476.5775 357.505 477.155 357.25 477.75 C355.81700012 480.32939979 354.21575324 482.06121592 352 484 C351.34 484 350.68 484 350 484 C349.74994044 484.57523785 349.49988089 485.15047569 349.24224377 485.74314499 C347.82482303 488.31825398 346.20719259 490.03588054 344.12409973 492.10968018 C342.9108905 493.32484566 342.9108905 493.32484566 341.673172 494.56455994 C340.78433823 495.44463211 339.89550446 496.32470428 338.97973633 497.23144531 C338.03470916 498.17427032 337.0901301 499.11754465 336.14596558 500.06123352 C334.113042 502.09122553 332.07700355 504.11802206 330.0384922 506.14240265 C326.80946634 509.34912163 323.58758026 512.56295065 320.36662292 515.777771 C315.26474346 520.86826834 310.15821726 525.95407482 305.04964322 531.037853 C295.91884112 540.12439674 286.79348309 549.21639891 277.67347544 558.31377673 C274.47674314 561.50214655 271.27722418 564.68768475 268.07536948 567.87091017 C266.07405479 569.86150031 264.07483685 571.85418683 262.07610703 573.84737206 C260.72063768 575.19777482 259.36260586 576.54560402 258.00447083 577.89332581 C253.67159379 582.2182224 249.49423441 586.59614564 245.55149364 591.28145981 C243.41980133 593.64266763 241.02718194 595.60261456 238.5703125 597.61328125 C236.4220834 599.51034923 234.7776887 601.76142905 233 604 C232.34 604 231.68 604 231 604 C230.73445313 604.5878125 230.46890625 605.175625 230.1953125 605.78125 C220.85602788 623.11691557 193.15206857 636.66526822 175.33984375 642.12109375 C164.34460481 645.17470538 153.45583339 647.6888475 142 647 C141.02812744 646.94634277 141.02812744 646.94634277 140.03662109 646.89160156 C116.27220397 645.43392297 94.73101018 637.77330744 76 623 C74.77023437 622.03682861 74.77023437 622.03682861 73.515625 621.05419922 C66.71106215 615.61183769 60.47394258 609.78609304 54.34350586 603.60424805 C52.78272578 602.03251687 51.21122294 600.47205482 49.63867188 598.91210938 C48.63998128 597.91210079 47.6419093 596.91147393 46.64453125 595.91015625 C45.75096924 595.01433838 44.85740723 594.11852051 43.93676758 593.19555664 C42 591 42 591 42 589 C41.43267151 588.75733398 40.86534302 588.51466797 40.28082275 588.26464844 C37.56103662 586.75660785 35.70898435 584.96323905 33.50683594 582.765625 C32.62622498 581.89131836 31.74561401 581.01701172 30.83831787 580.11621094 C29.8867478 579.16106205 28.93543964 578.20565216 27.984375 577.25 C27.00389341 576.27086602 26.02311513 575.29202907 25.04205322 574.31347656 C22.99123841 572.26560571 20.94407365 570.21417216 18.89941406 568.16015625 C16.27428192 565.52359985 13.64023305 562.89616355 11.00341415 560.27130127 C8.9787041 558.25380379 6.95876392 556.23158501 4.94025421 554.20788574 C3.97045069 553.23674562 2.99915258 552.26709572 2.02635956 551.2989502 C0.67127264 549.94892166 -0.67675686 548.59182027 -2.02441406 547.234375 C-2.79400452 546.46319336 -3.56359497 545.69201172 -4.35650635 544.89746094 C-6 543 -6 543 -6 541 C-6.5775 540.7525 -7.155 540.505 -7.75 540.25 C-10.32939979 538.81700012 -12.06121592 537.21575324 -14 535 C-14 534.34 -14 533.68 -14 533 C-14.58247498 532.7421875 -15.16494995 532.484375 -15.76507568 532.21875 C-18.19063451 530.8960431 -19.80514441 529.44871546 -21.75878906 527.5 C-22.83945648 526.42878906 -22.83945648 526.42878906 -23.94195557 525.3359375 C-24.70876648 524.56507813 -25.47557739 523.79421875 -26.265625 523 C-27.45572174 521.81277344 -27.45572174 521.81277344 -28.66986084 520.6015625 C-30.34324054 518.92954263 -32.01410181 517.25499903 -33.68261719 515.578125 C-36.24713597 513.00287602 -38.82216989 510.43848948 -41.3984375 507.875 C-43.02147527 506.25064116 -44.64389281 504.62566231 -46.265625 503 C-47.42798676 501.84371094 -47.42798676 501.84371094 -48.61383057 500.6640625 C-49.32166687 499.94992187 -50.02950317 499.23578125 -50.75878906 498.5 C-51.38626038 497.8709375 -52.01373169 497.241875 -52.66021729 496.59375 C-54 495 -54 495 -54 493 C-54.54511703 492.77950611 -55.09023405 492.55901222 -55.65186977 492.3318367 C-58.75551862 490.57147716 -61.07703986 488.20213058 -63.57008362 485.69061279 C-64.39661301 484.86982172 -64.39661301 484.86982172 -65.23983997 484.03244901 C-67.08598936 482.19662215 -68.92490763 480.35372034 -70.76391602 478.51074219 C-72.08613588 477.19286964 -73.40877306 475.87541567 -74.73179626 474.55834961 C-78.32789868 470.97565754 -81.91754724 467.38656421 -85.50568509 463.79589748 C-88.50764372 460.79286888 -91.51257461 457.79282317 -94.51746219 454.7927258 C-101.6172769 447.70401683 -108.7117371 440.60997981 -115.80297852 433.51269531 C-123.09453595 426.2151189 -130.39517181 418.92671787 -137.70040756 411.64283633 C-143.98546862 405.37546631 -150.2646258 399.10222303 -156.539226 392.82438016 C-160.28033808 389.08146438 -164.02358432 385.34075166 -167.77258492 381.60573578 C-171.30796111 378.08305285 -174.83583298 374.55301452 -178.35839272 371.01751709 C-179.64282621 369.73074173 -180.92974773 368.44644354 -182.21951675 367.16501617 C-219.66453486 329.94448398 -247.74240121 277.38130039 -248.23828125 223.69140625 C-248.24802979 222.81556381 -248.25777832 221.93972137 -248.26782227 221.03733826 C-248.43618354 201.9907322 -248.32238275 183.64982071 -244 165 C-243.81808105 164.17322754 -243.63616211 163.34645508 -243.44873047 162.49462891 C-237.87782739 137.57740826 -227.97999363 113.67626925 -213.6171875 92.5546875 C-211.82171078 90.22227611 -211.82171078 90.22227611 -212 88 C-210.85268563 86.83342102 -209.69934448 85.67227503 -208.51953125 84.53857422 C-205.60633265 81.58886702 -203.08810945 78.29613559 -200.5 75.0625 C-198.33552464 72.37322725 -196.16952935 69.68519759 -194 67 C-193.54061035 66.43039551 -193.0812207 65.86079102 -192.60791016 65.27392578 C-190.35942596 62.52407309 -188.09869843 60.02974759 -185.375 57.75 C-182.13925696 55.00232993 -179.03189284 52.15587856 -175.9375 49.25 C-129.31975172 6.82333559 -61.78668494 -11.2170411 0 0 Z M-103 61 C-103.68739258 61.3295166 -104.37478516 61.6590332 -105.08300781 61.99853516 C-121.16598284 69.79416827 -135.10385388 79.61157616 -148 92 C-148.73549072 92.68884277 -148.73549072 92.68884277 -149.48583984 93.39160156 C-178.42632374 120.56167159 -197.581223 160.23747712 -199.12402344 200.21362305 C-200.15380028 246.55675912 -187.77001674 287.71235633 -155.71484375 321.84765625 C-155.08487991 322.51861328 -154.45491608 323.18957031 -153.80586243 323.88085938 C-144.40669217 333.81753206 -134.71504151 343.47209649 -125.04321289 353.14208984 C-122.20810339 355.9770958 -119.38005256 358.81904054 -116.55350018 361.66257477 C-114.35995736 363.86718067 -112.16194112 366.06728295 -109.96259499 368.26609802 C-108.9159559 369.31391649 -107.87093644 370.36335539 -106.82758141 371.41444397 C-105.38546353 372.86628852 -103.93643908 374.31126309 -102.48706055 375.75585938 C-101.66626511 376.57807983 -100.84546967 377.40030029 -99.99980164 378.24743652 C-98.19249055 380.2196958 -98.19249055 380.2196958 -96 380 C-95.505 381.485 -95.505 381.485 -95 383 C-93.46586358 384.55624675 -93.46586358 384.55624675 -91.54248047 386.08422852 C-86.52585607 390.34385138 -81.94021148 394.97023728 -77.3203125 399.65234375 C-75.48710887 401.4981757 -73.65377174 403.34387507 -71.8203125 405.18945312 C-68.95391393 408.07967626 -66.09010298 410.97244524 -63.22851562 413.86743164 C-60.45181894 416.67591704 -57.66728399 419.47656619 -54.8828125 422.27734375 C-54.02140656 423.15220932 -53.16000061 424.02707489 -52.27249146 424.92845154 C-51.47761322 425.72670853 -50.68273499 426.52496552 -49.86376953 427.34741211 C-49.1639798 428.05465927 -48.46419006 428.76190643 -47.74319458 429.49058533 C-46.13231931 431.21819839 -46.13231931 431.21819839 -44 431 C-44 431.66 -44 432.32 -44 433 C-42.34551316 434.634689 -42.34551316 434.634689 -40.25 436.3125 C-37.07427272 439.00520583 -34.60157962 441.74802548 -32 445 C-30.85038269 446.02897243 -29.68238994 447.03754058 -28.50350952 448.03285217 C-23.41079819 452.44500438 -18.68877087 457.19404636 -13.94384766 461.97436523 C-12.96093727 462.96083984 -11.97778619 463.94707467 -10.99441528 464.93309021 C-8.89343947 467.04056898 -6.79398645 469.14954852 -4.69569778 471.25970268 C-1.37923979 474.59456825 1.94166316 477.9249838 5.26333618 481.25465393 C14.70229304 490.71768257 24.13519982 500.18672896 33.56396484 509.65991211 C38.78360902 514.90406718 44.00681222 520.14465106 49.23389018 525.38139683 C52.53914083 528.69319856 55.83983038 532.00946036 59.13724208 535.32906616 C61.18166346 537.38517747 63.23021486 539.43713386 65.27998734 541.48790932 C66.68800652 542.89911526 68.09101336 544.31531659 69.49389648 545.73162842 C70.32649994 546.5629277 71.15910339 547.39422699 72.01693726 548.25071716 C72.74213751 548.97905982 73.46733776 549.70740248 74.21451378 550.45781612 C75.85904573 552.21788729 75.85904573 552.21788729 78 552 C78.33 552.99 78.66 553.98 79 555 C80.49667647 556.50996413 80.49667647 556.50996413 82.38671875 558 C85.84193086 560.92973674 89.0446034 564.0058901 92.20703125 567.25 C93.12419922 568.1884375 94.04136719 569.126875 94.98632812 570.09375 C96.39924676 571.54354862 97.80877623 572.99611817 99.21020508 574.45703125 C111.12747987 586.85250053 124.60125625 595.92914754 142.20922852 596.29296875 C159.11707353 596.41129852 171.46950524 592.34344101 183.80859375 580.390625 C186.36299702 577.85634752 188.86743629 575.27909355 191.359375 572.68359375 C193.69336728 570.27186905 196.08516459 568.02185 198.64165497 565.84856415 C203.4303628 561.68519011 207.89837867 557.23432635 212.37414551 552.73937988 C213.28596856 551.82770569 214.1977916 550.9160315 215.13724566 549.97673082 C217.6485235 547.46574641 220.15669153 544.95167622 222.6643393 542.43706727 C225.37691816 539.71808065 228.09243239 537.0020284 230.80760193 534.28562927 C235.50664431 529.58370749 240.20390875 524.88001568 244.90000916 520.17515564 C251.69788937 513.36468925 258.4990352 506.55749138 265.30106336 499.75116807 C276.34911489 488.69605739 287.39529651 477.63908046 298.43994141 466.58056641 C299.100226 465.919454 299.7605106 465.25834159 300.44080383 464.57719547 C305.12725244 459.88484681 309.81363402 455.19243119 314.5 450.5 C319.85330661 445.139765 325.20664356 439.77956031 330.56005859 434.41943359 C331.21953359 433.75913047 331.87900859 433.09882734 332.55846769 432.41851503 C343.56329836 421.39998778 354.57010076 410.38343221 365.57830572 399.36827612 C372.36142001 392.58068759 379.14275311 385.79132882 385.92177951 378.99965751 C390.56752275 374.34547371 395.21504534 369.69307178 399.863958 365.04205382 C402.54369926 362.36097088 405.22261082 359.67907241 407.89930534 356.99494743 C410.80543637 354.08077978 413.71546483 351.17053465 416.62585449 348.26062012 C417.46477627 347.41810338 418.30369805 346.57558663 419.16804171 345.70753908 C423.39482051 341.48813415 427.6882 337.41915398 432.23165941 333.54137468 C438.00186413 328.51177375 443.0424014 322.81373008 448 317 C448.78632812 316.1028125 449.57265625 315.205625 450.3828125 314.28125 C478.109581 282.06054043 489.41486235 240.28176092 486.83886719 198.37890625 C486.43637373 193.21873369 485.79367247 188.11351837 485 183 C484.81695313 181.77925781 484.63390625 180.55851563 484.4453125 179.30078125 C481.46435657 162.27989093 475.39131506 146.06223499 467 131 C466.65211426 130.36368652 466.30422852 129.72737305 465.94580078 129.07177734 C460.62265962 119.41703664 454.34335202 111.19748813 447 103 C445.66554158 101.4593071 444.33202934 99.91779348 443 98.375 C440.127681 95.06304854 440.127681 95.06304854 437 92 C436.34 92 435.68 92 435 92 C435 91.34 435 90.68 435 90 C431.55663109 86.74275914 427.74113882 83.90622483 424 81 C423.43265137 80.55382324 422.86530273 80.10764648 422.28076172 79.64794922 C390.16248822 54.54185239 348.57173727 42.9049304 307.9765625 47.5 C271.33257136 52.44733234 238.5321271 68.09198041 211.70703125 93.44921875 C208.41092013 96.55507815 204.99224662 99.50306627 201.546875 102.44140625 C199.76518885 103.87060441 199.76518885 103.87060441 200 106 C198.515 106.495 198.515 106.495 197 107 C195.56785357 108.40078034 195.56785357 108.40078034 194.14453125 110.2109375 C189.20841555 116.02133242 183.85565995 121.40361285 178.4855957 126.80957031 C177.28772644 128.01898727 176.09434407 129.23286497 174.90551758 130.45117188 C156.82729529 148.97555462 156.82729529 148.97555462 143.9375 149.375 C132.26201735 149.23261607 124.9136737 143.08544336 117 135 C115.93885848 133.78552593 114.88376461 132.56575512 113.83300781 131.34228516 C110.09199836 127.05295382 106.16344722 122.98518851 102.15234375 118.94921875 C101.05171349 117.84003838 101.05171349 117.84003838 99.92884827 116.70845032 C98.38307381 115.15328995 96.83588771 113.59953154 95.28735352 112.04711914 C92.96095946 109.71105696 90.64549156 107.36451724 88.33007812 105.01757812 C79.67506701 96.30181488 70.86927327 88.31051218 61 81 C60.0608374 80.27321045 59.1216748 79.5464209 58.15405273 78.79760742 C13.45397138 44.21144718 -51.94428727 36.23606951 -103 61 Z " fill="#FEADA9" transform="translate(368,197)"/>
<path d="M0 0 C5.10080271 2.34636925 8.98218565 6.67211834 13.10546875 10.44921875 C16.25138556 13.2215314 19.49901403 15.80817657 22.8125 18.375 C28.09180852 22.46741491 33.23859458 26.67964097 38.31787109 31.01733398 C41.65695701 33.86800871 45.02787776 36.67092055 48.4375 39.4375 C53.30049424 43.39443418 58.05700203 47.46435942 62.80615234 51.55615234 C67.22031766 55.35163367 71.70333198 59.05277913 76.22265625 62.72265625 C79.90759143 65.74419944 83.53568321 68.83035951 87.16650391 71.91650391 C90.55973475 74.79557843 93.9827672 77.63211492 97.4375 80.4375 C103.43364314 85.32131514 109.29116256 90.35978064 115.14892578 95.40771484 C117.07381762 97.06349756 119.00307278 98.71406613 120.93359375 100.36328125 C121.892052 101.18252075 121.892052 101.18252075 122.86987305 102.01831055 C124.0987585 103.06847223 125.32807007 104.11813553 126.55786133 105.16723633 C128.76887802 107.05885174 130.94157975 108.94157975 133 111 C133.63164063 110.40574219 134.26328125 109.81148438 134.9140625 109.19921875 C140.56800801 103.96076491 146.36131038 99.03948961 152.45361328 94.3190918 C157.02375503 90.77763305 161.52310281 87.15850486 166 83.5 C175.81684812 75.49313325 185.77703613 67.68152063 195.83154297 59.9753418 C199.74012475 56.97759395 203.62744352 53.95347024 207.51000977 50.92211914 C214.71912942 45.29532137 221.9700462 39.7345364 229.30078125 34.26708984 C233.5013556 31.1324428 237.66803843 27.95839559 241.8125 24.75 C261.28632898 9.71970058 261.28632898 9.71970058 274 11 C279.68778393 12.93204089 283.2862817 16.77287942 286.15234375 21.9609375 C287.75928652 25.82648648 287.63200517 28.89184291 286.44140625 32.86328125 C282.71755167 41.75420678 274.20612625 48.09861264 267.0546875 54.23046875 C262.97170725 57.74679965 258.99956075 61.38945428 255 65 C253.33359149 66.50028679 251.66692647 68.00028872 250 69.5 C249.17242188 70.24507813 248.34484375 70.99015625 247.4921875 71.7578125 C245.85260121 73.23292618 244.21200345 74.70691652 242.5703125 76.1796875 C237.50461123 80.7274896 232.47194274 85.30972968 227.45922852 89.91577148 C224.34402807 92.77573387 221.2116546 95.61500001 218.0625 98.4375 C214.13172982 101.96316666 210.24787673 105.53612684 206.375 109.125 C202.32992708 112.87207618 198.2519551 116.56409444 194.078125 120.16796875 C190.87529024 122.99152045 187.75256846 125.90408772 184.64135742 128.828125 C181.34857089 131.8872299 177.92753246 134.4662947 174.25 137.0625 C167.93336431 142.08132118 165.77350361 148.47838652 162.82421875 155.73828125 C158.95008727 165.14630155 151.92518715 172.46828024 142.84765625 177.09765625 C135.18462251 180.07695508 126.64530162 180.2217241 118.875 177.5625 C109.73948827 173.43678502 101.83969619 165.2226151 97.5 156.25 C97.07332031 155.38246094 96.64664063 154.51492188 96.20703125 153.62109375 C95.44610661 151.9687299 94.72836572 150.29512624 94.07421875 148.59765625 C92.0183105 143.29939051 89.63412843 140.36074857 85.20703125 136.8125 C82.80682172 134.84135447 80.67120983 132.71995893 78.5 130.5 C75.8122154 127.7755846 73.10183137 125.16739688 70.1875 122.6875 C66.610978 119.62496918 63.30638863 116.34694836 60 113 C56.22684437 109.18555367 52.41230241 105.52262558 48.328125 102.0390625 C44.96676842 99.09505557 41.70468872 96.04778336 38.4375 93 C37.81190186 92.41814941 37.18630371 91.83629883 36.54174805 91.23681641 C33.48210622 88.37696987 30.47370341 85.48434486 27.53515625 82.5 C24.48489074 79.42528776 21.28148399 76.5800214 18.00439453 73.75048828 C14.73668864 70.89671834 11.59109086 67.91611281 8.4375 64.9375 C7.04056408 63.62218392 5.64342355 62.30708513 4.24609375 60.9921875 C3.54339355 60.33057617 2.84069336 59.66896484 2.11669922 58.98730469 C-0.60270009 56.43414317 -3.3355378 53.89565305 -6.0690918 51.35766602 C-9.05519866 48.58148145 -12.02881884 45.79213903 -15 43 C-15.86109375 42.19433594 -16.7221875 41.38867188 -17.609375 40.55859375 C-23.59761862 34.79982662 -26.6189532 29.57256155 -27.3125 21.25 C-27.22203811 15.17774588 -24.51374596 10.75275848 -20.625 6.25 C-19.75875 5.5075 -18.8925 4.765 -18 4 C-17.154375 3.236875 -16.30875 2.47375 -15.4375 1.6875 C-10.31434616 -0.82750279 -5.60313315 -0.73725436 0 0 Z " fill="#FEDDB9" transform="translate(381,375)"/>
<path d="M0 0 C4.83296556 3.46640289 8.84548932 8.80244373 10.265625 14.625 C11.33637999 21.95893831 9.37888625 27.53778674 5.265625 33.625 C1.01947967 38.41425694 -3.36024844 41.09379677 -9.79296875 41.875 C-16.53835546 42.24909424 -22.40165988 40.55837017 -27.52734375 36.046875 C-32.35600408 30.75323257 -35.34646126 25.01678677 -35.01953125 17.66796875 C-33.96961166 10.14594209 -30.3957093 4.82866751 -24.734375 -0.125 C-16.57290139 -5.22592101 -8.27568985 -4.58025602 0 0 Z " fill="#FEDDBA" transform="translate(524.734375,656.375)"/>
<path d="M0 0 C4.5863963 3.74399698 9.15707037 7.7837111 11.0625 13.5 C11.72445937 20.94231462 12.22890113 27.72045388 7.5546875 33.88671875 C3.15713782 38.64113764 -1.17678198 42.00721626 -7.76953125 42.87109375 C-16.11177606 43.0569629 -20.64971714 41.52936738 -26.6875 35.85546875 C-31.17557168 31.07610395 -32.71830263 26.56876322 -33.1875 20 C-32.6434027 12.38263776 -30.41631542 7.65953713 -24.9375 2.5 C-18.32593076 -2.8719 -7.74331703 -3.93311341 0 0 Z " fill="#FEDDBA" transform="translate(743.9375,472.5)"/>
<path d="M0 0 C4.88295041 2.86873336 8.19146643 6.96139657 11 11.8125 C12.99551127 20.19364733 11.26845554 27.78501825 7.0625 35.1875 C2.07873161 39.78790159 -3.65957212 42.70442596 -10.5 43 C-17.69046764 42.56114517 -22.398203 39.78443409 -27.25 34.5625 C-31.51016684 29.2930909 -32.8898341 24.45623465 -32.67578125 17.73046875 C-31.68330332 10.16443571 -27.07706391 5.81314023 -21.49609375 1.00390625 C-15.75296968 -3.2373327 -6.34335823 -2.8710751 0 0 Z " fill="#FEDDBA" transform="translate(299.375,472.5625)"/>
<path d="M0 0 C0.66 0 1.32 0 2 0 C3.30358887 1.32235718 3.30358887 1.32235718 4.87304688 3.23974609 C9.94070522 9.19328228 15.50161949 14.64582961 21.03125 20.1640625 C22.19289465 21.32638239 23.35439096 22.48885055 24.51574707 23.65145874 C26.93807761 26.07525531 29.36218619 28.49725528 31.78759766 30.91796875 C34.88076611 34.0054342 37.9694137 37.09737714 41.05673981 40.19068336 C43.45025284 42.5878262 45.84616258 44.98256219 48.24278259 47.37659836 C49.38208698 48.5152405 50.52066243 49.65461252 51.65846252 50.79475784 C57.27170934 56.41703866 62.91369408 61.88419658 69 67 C70.74371744 68.94395162 72.35683606 70.96766566 74 73 C77.33915694 76.51490204 80.88001685 79.62585583 84.64453125 82.66796875 C85.31548828 83.32732422 85.31548828 83.32732422 86 84 C86 84.66 86 85.32 86 86 C87.485 86.495 87.485 86.495 89 87 C90.39453125 88.453125 90.39453125 88.453125 91.8125 90.25 C93.77580623 92.63401471 95.53268835 94.442018 97.9375 96.4375 C101.13353726 99.11173526 103.65290672 101.99332895 106.34375 105.15625 C108.356867 107.39726704 110.64476611 109.12789101 113 111 C114.55775771 112.71976451 116.04324245 114.4892365 117.53125 116.26953125 C120.42321899 119.6768245 123.5701788 122.64181567 127 125.5 C130.65901074 128.54917562 133.96712046 131.6572566 136.875 135.4375 C138.63226429 137.556554 140.21269503 139.08214847 142.3125 140.8125 C144.94184036 142.99524327 147.17204072 145.26313876 149.375 147.875 C151.90159573 150.85479675 154.54430816 153.44507993 157.5 156 C161.0355019 159.06449912 164.08237734 162.27493733 167.1015625 165.83984375 C173.32153318 173.32119288 173.32153318 173.32119288 181 179 C181 179.66 181 180.32 181 181 C181.66 181 182.32 181 183 181 C183 181.66 183 182.32 183 183 C183.99 183.33 184.98 183.66 186 184 C187.578125 185.6015625 187.578125 185.6015625 189.25 187.625 C192.64686328 191.63100542 196.25177275 195.32607681 200 199 C201.66807969 200.66525244 203.33454062 202.33212692 205 204 C206.05199981 205.05216685 207.10408732 206.10424602 208.15625 207.15625 C210.38541667 209.38541667 212.61458333 211.61458333 214.84375 213.84375 C215.37871094 214.37790527 215.91367187 214.91206055 216.46484375 215.46240234 C217.8677975 216.86758725 219.26246604 218.28103172 220.65625 219.6953125 C222.70185178 221.70682092 224.79081042 223.54885539 227 225.375 C230.71390168 228.57542664 233.32447898 231.90310844 236 236 C232.48109194 234.49484133 230.20556035 232.45879258 227.50683594 229.765625 C226.62622498 228.89131836 225.74561401 228.01701172 224.83831787 227.11621094 C223.8867478 226.16106205 222.93543964 225.20565216 221.984375 224.25 C221.00389341 223.27086602 220.02311513 222.29202907 219.04205322 221.31347656 C216.99123841 219.26560571 214.94407365 217.21417216 212.89941406 215.16015625 C210.27428192 212.52359985 207.64023305 209.89616355 205.00341415 207.27130127 C202.9787041 205.25380379 200.95876392 203.23158501 198.94025421 201.20788574 C197.97045069 200.23674562 196.99915258 199.26709572 196.02635956 198.2989502 C194.67127264 196.94892166 193.32324314 195.59182027 191.97558594 194.234375 C191.20599548 193.46319336 190.43640503 192.69201172 189.64349365 191.89746094 C188 190 188 190 188 188 C187.4225 187.7525 186.845 187.505 186.25 187.25 C183.67060021 185.81700012 181.93878408 184.21575324 180 182 C180 181.34 180 180.68 180 180 C179.41752502 179.7421875 178.83505005 179.484375 178.23492432 179.21875 C175.80936549 177.8960431 174.19485559 176.44871546 172.24121094 174.5 C171.52076599 173.78585937 170.80032104 173.07171875 170.05804443 172.3359375 C169.29123352 171.56507813 168.52442261 170.79421875 167.734375 170 C166.94097717 169.20851563 166.14757935 168.41703125 165.33013916 167.6015625 C163.65675946 165.92954263 161.98589819 164.25499903 160.31738281 162.578125 C157.75286403 160.00287602 155.17783011 157.43848948 152.6015625 154.875 C150.97852473 153.25064116 149.35610719 151.62566231 147.734375 150 C146.95946716 149.22914063 146.18455933 148.45828125 145.38616943 147.6640625 C144.32441498 146.59285156 144.32441498 146.59285156 143.24121094 145.5 C142.61373962 144.8709375 141.98626831 144.241875 141.33978271 143.59375 C140 142 140 142 140 140 C139.45640965 139.78117157 138.91281929 139.56234314 138.3527565 139.33688354 C135.21802673 137.55566707 132.87362329 135.14929553 130.355896 132.60986328 C129.51772477 131.77637202 129.51772477 131.77637202 128.66262078 130.92604256 C126.79079948 129.06220099 124.92621093 127.1912891 123.06152344 125.3203125 C121.72146362 123.98296249 120.38097865 122.64603839 119.0401001 121.30950928 C115.39939079 117.67792569 111.76504584 114.04003443 108.13206768 110.40071869 C104.33405649 106.59765059 100.53117565 102.79945705 96.72906494 99.00048828 C90.34669665 92.62175964 83.96855976 86.23882272 77.59277344 79.85351562 C70.21198012 72.46182846 62.82399663 65.07738663 55.43225455 57.69664955 C49.09309037 51.36654714 42.75781435 45.03257322 36.42580056 38.69531822 C32.64073173 34.90712477 28.85430897 31.12031122 25.06438446 27.3369751 C21.50420742 23.7825551 17.94891978 20.22331721 14.39742279 16.66022491 C13.08977186 15.34991898 11.78039659 14.04133143 10.46922302 12.73455048 C8.68689206 10.9576431 6.91077085 9.17475861 5.13616943 7.39013672 C4.3465087 6.60716815 4.3465087 6.60716815 3.54089522 5.80838203 C0 2.22830052 0 2.22830052 0 0 Z " fill="#FC9D8D" transform="translate(174,550)"/>
<path d="M0 0 C0.66 0.33 1.32 0.66 2 1 C-7.57 10.57 -17.14 20.14 -27 30 C-27.66 29.67 -28.32 29.34 -29 29 C-28.44570313 28.45730469 -27.89140625 27.91460937 -27.3203125 27.35546875 C-26.59585938 26.64003906 -25.87140625 25.92460937 -25.125 25.1875 C-24.40570312 24.47980469 -23.68640625 23.77210938 -22.9453125 23.04296875 C-20.84641063 20.95600806 -20.84641063 20.95600806 -19 18 C-18.34 18 -17.68 18 -17 18 C-16.7417041 17.4112207 -16.4834082 16.82244141 -16.21728516 16.21582031 C-14.90367955 13.82466818 -13.53030173 12.38366599 -11.5234375 10.546875 C-10.51796875 9.61875 -10.51796875 9.61875 -9.4921875 8.671875 C-8.79351563 8.03765625 -8.09484375 7.4034375 -7.375 6.75 C-6.66859375 6.1003125 -5.9621875 5.450625 -5.234375 4.78125 C-3.49427822 3.18224215 -1.74943338 1.58877761 0 0 Z " fill="#FE9575" transform="translate(585,285)"/>
<path d="M0 0 C-0.99 0.33 -1.98 0.66 -3 1 C-3 1.66 -3 2.32 -3 3 C-4.43279297 3.13921875 -4.43279297 3.13921875 -5.89453125 3.28125 C-10.74551472 3.97477092 -15.13749231 5.73939096 -19.6875 7.5 C-21.35737796 8.13724078 -23.02792812 8.7727235 -24.69921875 9.40625 C-25.42971436 9.68791016 -26.16020996 9.96957031 -26.9128418 10.25976562 C-28.92515373 10.97345492 -30.92103495 11.51917886 -33 12 C-33 11.34 -33 10.68 -33 10 C-29.64771374 8.70341623 -26.29284986 7.4136327 -22.9375 6.125 C-21.99455078 5.76019531 -21.05160156 5.39539063 -20.08007812 5.01953125 C-6.03013871 -0.36546295 -6.03013871 -0.36546295 0 0 Z " fill="#FB9684" transform="translate(639,202)"/>
<path d="M0 0 C-0.99 0.33 -1.98 0.66 -3 1 C-3 1.66 -3 2.32 -3 3 C-8.94 3.495 -8.94 3.495 -15 4 C-10.34714182 0.89809455 -5.58467324 -0.33846504 0 0 Z " fill="#FB9E8F" transform="translate(639,202)"/>
<path d="M0 0 C2.5 2.3125 2.5 2.3125 5 5 C5 5.99 5 6.98 5 8 C2.5 6.25 2.5 6.25 0 4 C0 2.68 0 1.36 0 0 Z " fill="#FCA092" transform="translate(859,276)"/>
<path d="M0 0 C3 1 3 1 3 1 Z " fill="#F9B9B0" transform="translate(273,200)"/>
<path d="" fill="#F9B5B0" transform="translate(0,0)"/>
<path d="" fill="#F9B5AD" transform="translate(0,0)"/>
<path d="" fill="#FBB6B1" transform="translate(0,0)"/>
<path d="" fill="#FAB6AF" transform="translate(0,0)"/>
<path d="" fill="#F9B5B1" transform="translate(0,0)"/>
<path d="M0 0 C2 1 2 1 2 1 Z " fill="#F7B6AE" transform="translate(233,216)"/>
<path d="" fill="#716B69" transform="translate(0,0)"/>
<path d="" fill="#F5B2AE" transform="translate(0,0)"/>
<path d="" fill="#F4B4B3" transform="translate(0,0)"/>
<path d="" fill="#F4B4B1" transform="translate(0,0)"/>
<path d="" fill="#F8B2B0" transform="translate(0,0)"/>
<path d="" fill="#FBB2AD" transform="translate(0,0)"/>
<path d="" fill="#FBB5AF" transform="translate(0,0)"/>
<path d="" fill="#F7B4AE" transform="translate(0,0)"/>
<path d="" fill="#F9B3AB" transform="translate(0,0)"/>
<path d="" fill="#FCB2AE" transform="translate(0,0)"/>
<path d="" fill="#F9B5B2" transform="translate(0,0)"/>
<path d="" fill="#F8B4AF" transform="translate(0,0)"/>
<path d="" fill="#F7B3AB" transform="translate(0,0)"/>
<path d="" fill="#FBB6AE" transform="translate(0,0)"/>
<path d="" fill="#FAB6B0" transform="translate(0,0)"/>
<path d="" fill="#FCB6B3" transform="translate(0,0)"/>
<path d="" fill="#FCB5B0" transform="translate(0,0)"/>
<path d="" fill="#F9B1AB" transform="translate(0,0)"/>
<path d="" fill="#FAB4AF" transform="translate(0,0)"/>
<path d="" fill="#FAB5AF" transform="translate(0,0)"/>
<path d="" fill="#F8B7B3" transform="translate(0,0)"/>
<path d="" fill="#FCB5AF" transform="translate(0,0)"/>
<path d="" fill="#F9B5AF" transform="translate(0,0)"/>
<path d="" fill="#FCB4B0" transform="translate(0,0)"/>
<path d="" fill="#F9B6B0" transform="translate(0,0)"/>
<path d="" fill="#FAB5B0" transform="translate(0,0)"/>
<path d="" fill="#FAB1AD" transform="translate(0,0)"/>
<path d="" fill="#FAB3AD" transform="translate(0,0)"/>
<path d="" fill="#F6B4B0" transform="translate(0,0)"/>
<path d="" fill="#FAB7B3" transform="translate(0,0)"/>
<path d="" fill="#FCB7B1" transform="translate(0,0)"/>
<path d="" fill="#FAB6B2" transform="translate(0,0)"/>
<path d="" fill="#F9B6B3" transform="translate(0,0)"/>
<path d="" fill="#F8B6B3" transform="translate(0,0)"/>
<path d="" fill="#F7B4B1" transform="translate(0,0)"/>
<path d="" fill="#F8B4AF" transform="translate(0,0)"/>
<path d="" fill="#F6B6B1" transform="translate(0,0)"/>
<path d="" fill="#FBB4AE" transform="translate(0,0)"/>
<path d="" fill="#FAB8B2" transform="translate(0,0)"/>
<path d="" fill="#FAB2AE" transform="translate(0,0)"/>
<path d="" fill="#F9B5AE" transform="translate(0,0)"/>
<path d="" fill="#F7B2B0" transform="translate(0,0)"/>
<path d="" fill="#F7B6AE" transform="translate(0,0)"/>
<path d="" fill="#F9B6AD" transform="translate(0,0)"/>
<path d="" fill="#F4B4AF" transform="translate(0,0)"/>
<path d="" fill="#FBB7B0" transform="translate(0,0)"/>
<path d="" fill="#FBB8AF" transform="translate(0,0)"/>
<path d="" fill="#FAB5AF" transform="translate(0,0)"/>
<path d="" fill="#FAB4AF" transform="translate(0,0)"/>
<path d="" fill="#F8B6AF" transform="translate(0,0)"/>
<path d="" fill="#F9B4B1" transform="translate(0,0)"/>
<path d="" fill="#F9B6B1" transform="translate(0,0)"/>
<path d="" fill="#F7B7B1" transform="translate(0,0)"/>
<path d="" fill="#F7B3AE" transform="translate(0,0)"/>
<path d="" fill="#F6B5AF" transform="translate(0,0)"/>
<path d="" fill="#FAB2AB" transform="translate(0,0)"/>
<path d="" fill="#F8B3AE" transform="translate(0,0)"/>
<path d="" fill="#F4B3AD" transform="translate(0,0)"/>
<path d="" fill="#F9B8B2" transform="translate(0,0)"/>
<path d="" fill="#FDB8AF" transform="translate(0,0)"/>
<path d="" fill="#F5BBB5" transform="translate(0,0)"/>
<path d="" fill="#FAB5AF" transform="translate(0,0)"/>
<path d="" fill="#F7B8B0" transform="translate(0,0)"/>
<path d="" fill="#F3BAB5" transform="translate(0,0)"/>
<path d="" fill="#F9B4AE" transform="translate(0,0)"/>
<path d="" fill="#F6B3AF" transform="translate(0,0)"/>
<path d="" fill="#FAB5AF" transform="translate(0,0)"/>
<path d="" fill="#F5B4B2" transform="translate(0,0)"/>
<path d="" fill="#FAB4AF" transform="translate(0,0)"/>
<path d="" fill="#F6B5B1" transform="translate(0,0)"/>
<path d="" fill="#FBB6B0" transform="translate(0,0)"/>
<path d="" fill="#FAB1AC" transform="translate(0,0)"/>
<path d="" fill="#F7B5B0" transform="translate(0,0)"/>
<path d="" fill="#F8B3AE" transform="translate(0,0)"/>
<path d="" fill="#F8B7B2" transform="translate(0,0)"/>
<path d="" fill="#F7B1AB" transform="translate(0,0)"/>
<path d="" fill="#F4B0AD" transform="translate(0,0)"/>
<path d="" fill="#FAB6AD" transform="translate(0,0)"/>
<path d="" fill="#F6B7B0" transform="translate(0,0)"/>
<path d="" fill="#F7B4AC" transform="translate(0,0)"/>
<path d="" fill="#F7B2AC" transform="translate(0,0)"/>
<path d="" fill="#F7B2AD" transform="translate(0,0)"/>
<path d="" fill="#F9B6B0" transform="translate(0,0)"/>
<path d="" fill="#F8B3AD" transform="translate(0,0)"/>
<path d="" fill="#F9B6AF" transform="translate(0,0)"/>
<path d="" fill="#FAB5AF" transform="translate(0,0)"/>
<path d="" fill="#F8B2AD" transform="translate(0,0)"/>
<path d="" fill="#F9B2AC" transform="translate(0,0)"/>
<path d="" fill="#F7B5B0" transform="translate(0,0)"/>
<path d="" fill="#FAB4AF" transform="translate(0,0)"/>
<path d="" fill="#F9B7B0" transform="translate(0,0)"/>
<path d="" fill="#F8B5AF" transform="translate(0,0)"/>
<path d="" fill="#FAB4AF" transform="translate(0,0)"/>
</svg>
