<svg width="14" height="14" viewBox="0 0 14 14" fill="none" xmlns="http://www.w3.org/2000/svg">
<path fill-rule="evenodd" clip-rule="evenodd" d="M12.5993 10.8059C12.598 10.7997 12.5956 10.7889 12.5912 10.7732C12.5803 10.7345 12.5632 10.6876 12.5421 10.6374C12.5359 10.6226 12.5296 10.6083 12.5235 10.5946C12.0786 10.2895 11.1926 9.85974 10.3983 9.67011C9.44563 9.44268 8.27446 9.30591 7 9.30591C5.72555 9.30591 4.55438 9.44268 3.60168 9.67011C2.80042 9.86139 1.90577 10.2971 1.46489 10.6026C1.46085 10.6111 1.45676 10.62 1.45269 10.6292C1.43472 10.6698 1.42003 10.7095 1.41042 10.7446C1.40125 10.7782 1.40014 10.7952 1.40002 10.7971C1.4 10.7973 1.40002 10.7971 1.40002 10.7971C1.40002 10.8059 1.40364 10.9153 1.6397 11.1095C1.87092 11.2996 2.24777 11.5021 2.77519 11.6855C3.82347 12.0501 5.31717 12.2885 7 12.2885C8.68284 12.2885 10.1765 12.0501 11.2248 11.6855C11.7522 11.5021 12.1291 11.2996 12.3603 11.1095C12.5652 10.941 12.595 10.8364 12.5993 10.8059ZM0.333128 9.75758L6.10901 0.494439C6.52008 -0.16481 7.47992 -0.164814 7.891 0.494439L13.6687 9.76045C13.6748 9.77032 13.6807 9.78033 13.6864 9.79052L13.0747 10.1308C13.6864 9.79052 13.6863 9.79041 13.6864 9.79052L13.6868 9.79125L13.6873 9.79213L13.6885 9.79437L13.692 9.80063C13.6947 9.8056 13.6982 9.81211 13.7024 9.82006C13.7108 9.83588 13.7222 9.85758 13.7354 9.88396C13.7616 9.93622 13.7969 10.0097 13.8326 10.0946C13.8915 10.2347 14 10.5144 14 10.7972C14 11.3934 13.651 11.8606 13.2495 12.1908C12.8431 12.525 12.2974 12.7947 11.6848 13.0078C10.4529 13.4363 8.79655 13.6885 7 13.6885C5.20345 13.6885 3.54711 13.4363 2.31525 13.0078C1.70263 12.7947 1.15686 12.525 0.750471 12.1908C0.348938 11.8606 1.87755e-06 11.3934 1.87755e-06 10.7972C1.87755e-06 10.4939 0.102429 10.2208 0.172629 10.0623C0.211318 9.97493 0.249723 9.90164 0.27891 9.84938C0.293648 9.82296 0.30642 9.80123 0.31623 9.78499C0.321144 9.77683 0.325344 9.77001 0.328711 9.76462L0.331322 9.76045L0.333128 9.75758ZM11.1954 8.4399L7 1.71149L2.80459 8.4399C2.96314 8.38982 3.12127 8.34547 3.2766 8.30837C4.34984 8.05214 5.63154 7.90591 7 7.90591C8.36847 7.90591 9.65016 8.05214 10.7234 8.30837C10.8787 8.34547 11.0369 8.38982 11.1954 8.4399Z" fill="#171212"/>
</svg>
